<svg viewBox="0 0 614 400" xmlns="http://www.w3.org/2000/svg"><g><g><g><g><g><line x1="50" y1="378" x2="45" y2="378" style="visibility: inherit;" fill="rgb(0, 0, 0)" stroke="rgb(204, 204, 204)" stroke-width="1px"></line><line x1="50" y1="340.20000000000016" x2="45" y2="340.20000000000016" style="visibility: inherit;" fill="rgb(0, 0, 0)" stroke="rgb(204, 204, 204)" stroke-width="1px"></line><line x1="50" y1="302.4000000000001" x2="45" y2="302.4000000000001" style="visibility: inherit;" fill="rgb(0, 0, 0)" stroke="rgb(204, 204, 204)" stroke-width="1px"></line><line x1="50" y1="264.6000000000001" x2="45" y2="264.6000000000001" style="visibility: inherit;" fill="rgb(0, 0, 0)" stroke="rgb(204, 204, 204)" stroke-width="1px"></line><line x1="50" y1="226.80000000000004" x2="45" y2="226.80000000000004" style="visibility: inherit;" fill="rgb(0, 0, 0)" stroke="rgb(204, 204, 204)" stroke-width="1px"></line><line x1="50" y1="189" x2="45" y2="189" style="visibility: inherit;" fill="rgb(0, 0, 0)" stroke="rgb(204, 204, 204)" stroke-width="1px"></line><line x1="50" y1="151.19999999999996" x2="45" y2="151.19999999999996" style="visibility: inherit;" fill="rgb(0, 0, 0)" stroke="rgb(204, 204, 204)" stroke-width="1px"></line><line x1="50" y1="113.40000000000015" x2="45" y2="113.40000000000015" style="visibility: inherit;" fill="rgb(0, 0, 0)" stroke="rgb(204, 204, 204)" stroke-width="1px"></line><line x1="50" y1="75.60000000000008" x2="45" y2="75.60000000000008" style="visibility: inherit;" fill="rgb(0, 0, 0)" stroke="rgb(204, 204, 204)" stroke-width="1px"></line><line x1="50" y1="37.80000000000001" x2="45" y2="37.80000000000001" style="visibility: inherit;" fill="rgb(0, 0, 0)" stroke="rgb(204, 204, 204)" stroke-width="1px"></line><line x1="50" y1="0" x2="45" y2="0" style="visibility: inherit;" fill="rgb(0, 0, 0)" stroke="rgb(204, 204, 204)" stroke-width="1px"></line></g><g transform="translate(40, 0)"><text x="0" y="378" dx="0em" dy="0.3em" style="text-anchor: end; visibility: hidden; font-family: &quot;Helvetica Neue&quot;, sans-serif; font-size: 12px; font-weight: 200;" fill="rgb(50, 49, 63)" stroke="none" stroke-width="1px">0.68</text><text x="0" y="340.20000000000016" dx="0em" dy="0.3em" style="text-anchor: end; visibility: inherit; font-family: &quot;Helvetica Neue&quot;, sans-serif; font-size: 12px; font-weight: 200;" fill="rgb(50, 49, 63)" stroke="none" stroke-width="1px">0.7</text><text x="0" y="302.4000000000001" dx="0em" dy="0.3em" style="text-anchor: end; visibility: inherit; font-family: &quot;Helvetica Neue&quot;, sans-serif; font-size: 12px; font-weight: 200;" fill="rgb(50, 49, 63)" stroke="none" stroke-width="1px">0.72</text><text x="0" y="264.6000000000001" dx="0em" dy="0.3em" style="text-anchor: end; visibility: inherit; font-family: &quot;Helvetica Neue&quot;, sans-serif; font-size: 12px; font-weight: 200;" fill="rgb(50, 49, 63)" stroke="none" stroke-width="1px">0.74</text><text x="0" y="226.80000000000004" dx="0em" dy="0.3em" style="text-anchor: end; visibility: inherit; font-family: &quot;Helvetica Neue&quot;, sans-serif; font-size: 12px; font-weight: 200;" fill="rgb(50, 49, 63)" stroke="none" stroke-width="1px">0.76</text><text x="0" y="189" dx="0em" dy="0.3em" style="text-anchor: end; visibility: inherit; font-family: &quot;Helvetica Neue&quot;, sans-serif; font-size: 12px; font-weight: 200;" fill="rgb(50, 49, 63)" stroke="none" stroke-width="1px">0.78</text><text x="0" y="151.19999999999996" dx="0em" dy="0.3em" style="text-anchor: end; visibility: inherit; font-family: &quot;Helvetica Neue&quot;, sans-serif; font-size: 12px; font-weight: 200;" fill="rgb(50, 49, 63)" stroke="none" stroke-width="1px">0.8</text><text x="0" y="113.40000000000015" dx="0em" dy="0.3em" style="text-anchor: end; visibility: inherit; font-family: &quot;Helvetica Neue&quot;, sans-serif; font-size: 12px; font-weight: 200;" fill="rgb(50, 49, 63)" stroke="none" stroke-width="1px">0.82</text><text x="0" y="75.60000000000008" dx="0em" dy="0.3em" style="text-anchor: end; visibility: inherit; font-family: &quot;Helvetica Neue&quot;, sans-serif; font-size: 12px; font-weight: 200;" fill="rgb(50, 49, 63)" stroke="none" stroke-width="1px">0.84</text><text x="0" y="37.80000000000001" dx="0em" dy="0.3em" style="text-anchor: end; visibility: inherit; font-family: &quot;Helvetica Neue&quot;, sans-serif; font-size: 12px; font-weight: 200;" fill="rgb(50, 49, 63)" stroke="none" stroke-width="1px">0.86</text><text x="0" y="0" dx="0em" dy="0.3em" style="text-anchor: end; visibility: hidden; font-family: &quot;Helvetica Neue&quot;, sans-serif; font-size: 12px; font-weight: 200;" fill="rgb(50, 49, 63)" stroke="none" stroke-width="1px">0.88</text></g><line x1="50" y1="0" x2="50" y2="378" fill="rgb(0, 0, 0)" stroke="rgb(204, 204, 204)" stroke-width="1px"></line></g></g><g transform="translate(50, 0)" clip-path="url(#clip_0)"><clipPath id="clip_0"><rect width="1446" height="378"></rect></clipPath><g><g><g><line x1="0" y1="0" x2="0" y2="378" fill="rgb(0, 0, 0)" stroke="rgb(60, 60, 60)" stroke-width="1px" opacity="0.25"></line><line x1="131.45454545454547" y1="0" x2="131.45454545454547" y2="378" fill="rgb(0, 0, 0)" stroke="rgb(60, 60, 60)" stroke-width="1px" opacity="0.25"></line><line x1="262.90909090909093" y1="0" x2="262.90909090909093" y2="378" fill="rgb(0, 0, 0)" stroke="rgb(60, 60, 60)" stroke-width="1px" opacity="0.25"></line><line x1="394.3636363636363" y1="0" x2="394.3636363636363" y2="378" fill="rgb(0, 0, 0)" stroke="rgb(60, 60, 60)" stroke-width="1px" opacity="0.25"></line><line x1="525.8181818181819" y1="0" x2="525.8181818181819" y2="378" fill="rgb(0, 0, 0)" stroke="rgb(60, 60, 60)" stroke-width="1px" opacity="0.25"></line><line x1="657.2727272727273" y1="0" x2="657.2727272727273" y2="378" fill="rgb(0, 0, 0)" stroke="rgb(60, 60, 60)" stroke-width="1px" opacity="0.25"></line><line x1="788.7272727272726" y1="0" x2="788.7272727272726" y2="378" fill="rgb(0, 0, 0)" stroke="rgb(60, 60, 60)" stroke-width="1px" opacity="0.25"></line><line x1="920.1818181818181" y1="0" x2="920.1818181818181" y2="378" fill="rgb(0, 0, 0)" stroke="rgb(60, 60, 60)" stroke-width="1px" opacity="0.25"></line><line x1="1051.6363636363637" y1="0" x2="1051.6363636363637" y2="378" fill="rgb(0, 0, 0)" stroke="rgb(60, 60, 60)" stroke-width="1px" opacity="0.25"></line><line x1="1183.0909090909092" y1="0" x2="1183.0909090909092" y2="378" fill="rgb(0, 0, 0)" stroke="rgb(60, 60, 60)" stroke-width="1px" opacity="0.25"></line><line x1="1314.5454545454545" y1="0" x2="1314.5454545454545" y2="378" fill="rgb(0, 0, 0)" stroke="rgb(60, 60, 60)" stroke-width="1px" opacity="0.25"></line><line x1="1446" y1="0" x2="1446" y2="378" fill="rgb(0, 0, 0)" stroke="rgb(60, 60, 60)" stroke-width="1px" opacity="0.25"></line></g><g><line x1="0" y1="378" x2="1446" y2="378" fill="rgb(0, 0, 0)" stroke="rgb(60, 60, 60)" stroke-width="1px" opacity="0.25"></line><line x1="0" y1="340.20000000000016" x2="1446" y2="340.20000000000016" fill="rgb(0, 0, 0)" stroke="rgb(60, 60, 60)" stroke-width="1px" opacity="0.25"></line><line x1="0" y1="302.4000000000001" x2="1446" y2="302.4000000000001" fill="rgb(0, 0, 0)" stroke="rgb(60, 60, 60)" stroke-width="1px" opacity="0.25"></line><line x1="0" y1="264.6000000000001" x2="1446" y2="264.6000000000001" fill="rgb(0, 0, 0)" stroke="rgb(60, 60, 60)" stroke-width="1px" opacity="0.25"></line><line x1="0" y1="226.80000000000004" x2="1446" y2="226.80000000000004" fill="rgb(0, 0, 0)" stroke="rgb(60, 60, 60)" stroke-width="1px" opacity="0.25"></line><line x1="0" y1="189" x2="1446" y2="189" fill="rgb(0, 0, 0)" stroke="rgb(60, 60, 60)" stroke-width="1px" opacity="0.25"></line><line x1="0" y1="151.19999999999996" x2="1446" y2="151.19999999999996" fill="rgb(0, 0, 0)" stroke="rgb(60, 60, 60)" stroke-width="1px" opacity="0.25"></line><line x1="0" y1="113.40000000000015" x2="1446" y2="113.40000000000015" fill="rgb(0, 0, 0)" stroke="rgb(60, 60, 60)" stroke-width="1px" opacity="0.25"></line><line x1="0" y1="75.60000000000008" x2="1446" y2="75.60000000000008" fill="rgb(0, 0, 0)" stroke="rgb(60, 60, 60)" stroke-width="1px" opacity="0.25"></line><line x1="0" y1="37.80000000000001" x2="1446" y2="37.80000000000001" fill="rgb(0, 0, 0)" stroke="rgb(60, 60, 60)" stroke-width="1px" opacity="0.25"></line><line x1="0" y1="0" x2="1446" y2="0" fill="rgb(0, 0, 0)" stroke="rgb(60, 60, 60)" stroke-width="1px" opacity="0.25"></line></g></g></g><g><g><line x1="0" y1="1663.2000000000003" x2="1446" y2="1663.2000000000003" fill="rgb(0, 0, 0)" stroke="rgb(153, 153, 153)" stroke-width="1.5px"></line></g></g><g><g><line x1="131.45454545454547" y1="0" x2="131.45454545454547" y2="378" fill="rgb(0, 0, 0)" stroke="rgb(153, 153, 153)" stroke-width="1.5px"></line></g></g><g><g><g><g><g><path stroke="rgb(0, 153, 136)" stroke-width="2px" d="M131.45454545454547,313.95845897197734L262.90909090909093,232.53570312487147L394.3636363636363,181.18809604906033L525.8181818181819,139.6773008952982L657.2727272727273,114.13787803991454L788.7272727272726,95.0970955283579L920.1818181818181,98.42847728936181L1051.6363636363637,76.22485300592228L1183.0909090909092,73.92268374488214L1314.5454545454545,79.74478154859537" style="fill: none;" fill="none"></path></g><g><path stroke="rgb(0, 119, 187)" stroke-width="2px" d="M131.45454545454547,627.9472125291826L262.90909090909093,317.0604726501416L394.3636363636363,241.8132259408058L525.8181818181819,167.51246892759954L657.2727272727273,158.91151293600385L788.7272727272726,102.81951796764082L920.1818181818181,79.1953184320925L1051.6363636363637,68.82792243058833L1183.0909090909092,59.30747233604461L1314.5454545454545,66.78648208501471" style="fill: none;" fill="none"></path></g><g><path stroke="rgb(238, 51, 119)" stroke-width="2px" d="M131.45454545454547,265.4190803289414L262.90909090909093,201.0781054954276L394.3636363636363,179.9562675355264L525.8181818181819,144.40703221391558L657.2727272727273,122.30823733358335L788.7272727272726,113.5289521000077L920.1818181818181,112.14523674441165L1051.6363636363637,92.43166457442868L1183.0909090909092,92.9825027516165L1314.5454545454545,68.34005231197335" style="fill: none;" fill="none"></path></g><g><path stroke="rgb(187, 187, 187)" stroke-width="2px" d="M131.45454545454547,369.3235821247102L262.90909090909093,266.83348806226604L394.3636363636363,208.0067468336728L525.8181818181819,174.5166333432067L657.2727272727273,139.8533492053708L788.7272727272726,118.83086169054832L920.1818181818181,109.8490168797369L1051.6363636363637,104.84383628922774L1183.0909090909092,98.11618076003208L1314.5454545454545,89.80325520365602" style="fill: none;" fill="none"></path></g><g><path stroke="rgb(204, 51, 17)" stroke-width="2px" d="M131.45454545454547,375.391060781479L262.90909090909093,254.1110414337469L394.3636363636363,186.22599001395514L525.8181818181819,161.8228815836332L657.2727272727273,126.00843832063012L788.7272727272726,125.40758189896707L920.1818181818181,104.93457175290791L1051.6363636363637,104.73281529991067L1183.0909090909092,93.51950463837693L1314.5454545454545,74.59804363151886" style="fill: none;" fill="none"></path></g><g><path stroke="rgb(0, 153, 136)" stroke-width="2px" d="M131.45454545454547,362.4977249622346L262.90909090909093,297.58731232204974L394.3636363636363,210.60029865960203L525.8181818181819,182.02352149858592L657.2727272727273,165.21602168764574L788.7272727272726,133.3162410138198L920.1818181818181,121.24299884478239L1051.6363636363637,106.09200600341671L1183.0909090909092,112.210220374019L1314.5454545454545,98.53546486259705" style="fill: none;" fill="none"></path></g><g><path stroke="rgb(238, 51, 119)" stroke-width="2px" d="M131.45454545454547,513.424735736847L262.90909090909093,274.85050796560364L394.3636363636363,180.4901665139592L525.8181818181819,113.29545138803513L657.2727272727273,107.99386961952956L788.7272727272726,76.32162002323435L920.1818181818181,80.5430104867288L1051.6363636363637,75.3556591615876L1183.0909090909092,83.26055359931729L1314.5454545454545,89.43109521319928" style="fill: none;" fill="none"></path></g><g><path stroke="rgb(255, 112, 67)" stroke-width="2px" d="M131.45454545454547,265.4190803289414L262.90909090909093,208.48012038888163L394.3636363636363,151.19943120363686L525.8181818181819,131.50599625683304L657.2727272727273,96.6953974549242L788.7272727272726,84.24875307316256L920.1818181818181,59.35024017755205L1051.6363636363637,61.2278949601062L1183.0909090909092,67.42424436834915L1314.5454545454545,62.894844570043574" style="fill: none;" fill="none"></path></g><g><path stroke="rgb(51, 187, 238)" stroke-width="2px" d="M131.45454545454547,256.3179749965668L262.90909090909093,205.07288567826583L394.3636363636363,160.6721781739243L525.8181818181819,164.31901504620288L657.2727272727273,111.06131552927923L788.7272727272726,88.49809343956531L920.1818181818181,83.06136465998702L1051.6363636363637,63.52388576104744L1183.0909090909092,55.013371688711686L1314.5454545454545,59.78785514792378" style="fill: none;" fill="none"></path></g><g><path stroke="rgb(51, 187, 238)" stroke-width="2px" d="M131.45454545454547,269.2111981630326L262.90909090909093,239.03361620838587L394.3636363636363,191.59443037952803L525.8181818181819,157.91961726326528L657.2727272727273,152.70059592438227L788.7272727272726,157.0743276025824L920.1818181818181,163.08289342195263L1051.6363636363637,179.76974040298313L1183.0909090909092,178.21442700196238L1314.5454545454545,185.80433889071455" style="fill: none;" fill="none"></path></g><g><path stroke="rgb(187, 187, 187)" stroke-width="2px" d="M131.45454545454547,274.52018566131596L262.90909090909093,229.53840477144414L394.3636363636363,245.47729664332505L525.8181818181819,202.034748747402L657.2727272727273,173.33163302163365L788.7272727272726,157.8176609827739L920.1818181818181,155.72659964218386L1051.6363636363637,139.83206729383954L1183.0909090909092,138.10374763817512L1314.5454545454545,151.71594152369855" style="fill: none;" fill="none"></path></g><g><path stroke="rgb(204, 51, 17)" stroke-width="2px" d="M131.45454545454547,368.5652036190034L262.90909090909093,308.77930836806456L394.3636363636363,245.05862834236774L525.8181818181819,232.1579847717105L657.2727272727273,203.0896302784133L788.7272727272726,201.15299675177877L920.1818181818181,201.5260626590894L1051.6363636363637,183.91513694980404L1183.0909090909092,162.87099429165363L1314.5454545454545,156.39193688419655" style="fill: none;" fill="none"></path></g><g><path stroke="rgb(238, 51, 119)" stroke-width="2px" d="M131.45454545454547,270.7280678272248L262.90909090909093,226.8850779765361L394.3636363636363,201.01621690658146L525.8181818181819,168.6631885816739L657.2727272727273,168.95544056875102L788.7272727272726,173.10985327055462L920.1818181818181,172.96362412451L1051.6363636363637,168.86145981336693L1183.0909090909092,185.73966422608697L1314.5454545454545,198.43541482458286" style="fill: none;" fill="none"></path></g><g><path stroke="rgb(255, 112, 67)" stroke-width="2px" d="M131.45454545454547,290.4471481561661L262.90909090909093,252.86746673390687L394.3636363636363,207.93134674885786L525.8181818181819,182.1850872940813L657.2727272727273,167.8126181300408L788.7272727272726,153.45376019406623L920.1818181818181,147.18311905373758L1051.6363636363637,147.63733111351596L1183.0909090909092,162.48100132807224L1314.5454545454545,171.9681993601522" style="fill: none;" fill="none"></path></g><g><path stroke="rgb(51, 187, 238)" stroke-width="2px" d="M131.45454545454547,295.7561356544495L262.90909090909093,243.37233987112324L394.3636363636363,207.64924414366186L525.8181818181819,193.37663417343973L657.2727272727273,191.33651128553714L788.7272727272726,176.46188556350455L920.1818181818181,164.44527930012947L1051.6363636363637,169.5811365700063L1183.0909090909092,176.35215959329642L1314.5454545454545,162.89403283594396" style="fill: none;" fill="none"></path></g><g><path stroke="rgb(204, 51, 17)" stroke-width="2px" d="M131.45454545454547,307.13260180950175L262.90909090909093,264.4284029979966L394.3636363636363,205.16576951957595L525.8181818181819,178.21244380032726L657.2727272727273,188.8864180926614L788.7272727272726,193.91372133332408L920.1818181818181,183.9191302592617L1051.6363636363637,184.65855447481206L1183.0909090909092,201.62351485174585L1314.5454545454545,203.20200026332589" style="fill: none;" fill="none"></path></g><g><path stroke="rgb(0, 153, 136)" stroke-width="2px" d="M131.45454545454547,310.92471964359294L262.90909090909093,239.7509985749789L394.3636363636363,201.80605435965933L525.8181818181819,190.45904557630928L657.2727272727273,160.36353807947947L788.7272727272726,179.39661153854735L920.1818181818181,172.51469849105519L1051.6363636363637,174.2862250165975L1183.0909090909092,180.44735378270704L1314.5454545454545,170.83991041237266" style="fill: none;" fill="none"></path></g><g><path stroke="rgb(0, 119, 187)" stroke-width="2px" d="M131.45454545454547,354.15511078834544L262.90909090909093,295.50792200243166L394.3636363636363,252.03260529095178L525.8181818181819,198.51585007931604L657.2727272727273,167.08609111032396L788.7272727272726,155.24238400144458L920.1818181818181,185.79055814855698L1051.6363636363637,190.34670133187794L1183.0909090909092,164.4994414466513L1314.5454545454545,156.93256364109166" style="fill: none;" fill="none"></path></g><g><path stroke="rgb(0, 119, 187)" stroke-width="2px" d="M131.45454545454547,345.05389280319224L262.90909090909093,266.47815684112356L394.3636363636363,256.2780833177782L525.8181818181819,287.07668034564546L657.2727272727273,277.1289511813094L788.7272727272726,297.1982655785489L920.1818181818181,288.63170998430536L1051.6363636363637,282.75074731871086L1183.0909090909092,287.8921950361456L1314.5454545454545,295.17196368053783" style="fill: none;" fill="none"></path></g><g><path stroke="rgb(238, 51, 119)" stroke-width="2px" d="M131.45454545454547,276.7955464839936L262.90909090909093,249.46481526606806L394.3636363636363,257.37188706842L525.8181818181819,247.4277135884192L657.2727272727273,247.2862994421001L788.7272727272726,253.3275488381366L920.1818181818181,259.8877427394195L1051.6363636363637,262.06313157265834L1183.0909090909092,259.23849749356464L1314.5454545454545,259.31412756741315" style="fill: none;" fill="none"></path></g><g><path stroke="rgb(255, 112, 67)" stroke-width="2px" d="M131.45454545454547,304.0988624811173L262.90909090909093,289.86410135256307L394.3636363636363,260.2936381732158L525.8181818181819,272.47814014593666L657.2727272727273,260.6220584647657L788.7272727272726,251.14803313222387L920.1818181818181,259.6716132826216L1051.6363636363637,258.9511423390343L1183.0909090909092,249.59232378335187L1314.5454545454545,273.84400947823144" style="fill: none;" fill="none"></path></g><g><path stroke="rgb(204, 51, 17)" stroke-width="2px" d="M131.45454545454547,342.02026612758647L262.90909090909093,281.66493306997677L394.3636363636363,267.77113392703734L525.8181818181819,248.23053873643687L657.2727272727273,258.7416128177096L788.7272727272726,261.1788871142892L920.1818181818181,261.9851567754367L1051.6363636363637,266.30619339243617L1183.0909090909092,266.7268914181209L1314.5454545454545,260.7869075421602" style="fill: none;" fill="none"></path></g><g><path stroke="rgb(0, 153, 136)" stroke-width="2px" d="M131.45454545454547,302.5819928169251L262.90909090909093,278.6676347165497L394.3636363636363,292.09402462586854L525.8181818181819,274.0560120652031L657.2727272727273,260.1242706717227L788.7272727272726,262.1440425182151L920.1818181818181,265.34646049707703L1051.6363636363637,269.44865179645063L1183.0909090909092,269.79672192046485L1314.5454545454545,278.52507922774487" style="fill: none;" fill="none"></path></g><g><path stroke="rgb(0, 119, 187)" stroke-width="2px" d="M131.45454545454547,314.7168374776841L262.90909090909093,315.8556285168677L394.3636363636363,267.7374097026193L525.8181818181819,253.34819757395846L657.2727272727273,243.13172322593923L788.7272727272726,244.84963264557928L920.1818181818181,240.349407825265L1051.6363636363637,252.03140396671108L1183.0909090909092,273.13455791846826L1314.5454545454545,255.3145801441887" style="fill: none;" fill="none"></path></g><g><path stroke="rgb(255, 112, 67)" stroke-width="2px" d="M131.45454545454547,290.4471481561661L262.90909090909093,305.25134709139144L394.3636363636363,272.8998372531656L525.8181818181819,264.25121298715476L657.2727272727273,268.0866256130347L788.7272727272726,285.0727394596745L920.1818181818181,298.80156236797313L1051.6363636363637,307.40769858916775L1183.0909090909092,303.1706505599625L1314.5454545454545,299.230959440977" style="fill: none;" fill="none"></path></g><g><path stroke="rgb(51, 187, 238)" stroke-width="2px" d="M131.45454545454547,305.6157321453095L262.90909090909093,291.3809710167551L394.3636363636363,286.0006921070394L525.8181818181819,256.69727501868505L657.2727272727273,267.1251752956342L788.7272727272726,271.56439014275753L920.1818181818181,276.58089868114047L1051.6363636363637,265.57677609603803L1183.0909090909092,270.5379478735074L1314.5454545454545,268.13177414157633" style="fill: none;" fill="none"></path></g><g><path stroke="rgb(187, 187, 187)" stroke-width="2px" d="M131.45454545454547,282.86291248798375L262.90909090909093,281.7241214488006L394.3636363636363,300.91928706149326L525.8181818181819,285.6320928696467L657.2727272727273,266.9883300014815L788.7272727272726,256.2998157092737L920.1818181818181,254.7914097028182L1051.6363636363637,294.827505033273L1183.0909090909092,289.36802438288987L1314.5454545454545,286.54242944286636" style="fill: none;" fill="none"></path></g></g></g></g><g opacity="0.2"><g><g><g><path stroke="rgb(0, 153, 136)" stroke-width="2px" d="M131.45454545454547,313.95845897197734L262.90909090909093,205.50334818363194L394.3636363636363,158.48095185756688L525.8181818181819,119.80116970539098L657.2727272727273,101.5988463878632L788.7272727272726,85.67188389301299L920.1818181818181,100.081976723671L1051.6363636363637,65.19442505836486L1183.0909090909092,72.77866072654723L1314.5454545454545,82.63825721740722" style="fill: none;" fill="none"></path></g><g><path stroke="rgb(0, 119, 187)" stroke-width="2px" d="M131.45454545454547,627.9472125291826L262.90909090909093,213.84607501029973L394.3636363636363,208.53708751201634L525.8181818181819,131.93590171337132L657.2727272727273,154.68872137069707L788.7272727272726,75.05390889644622L920.1818181818181,67.46967322826384L1051.6363636363637,63.67755539417266L1183.0909090909092,54.576450061798084L1314.5454545454545,70.50341255664824" style="fill: none;" fill="none"></path></g><g><path stroke="rgb(238, 51, 119)" stroke-width="2px" d="M131.45454545454547,265.4190803289414L262.90909090909093,179.71690185070042L394.3636363636363,170.61568386554723L525.8181818181819,127.38540537357335L657.2727272727273,111.45844287872319L788.7272727272726,109.1831947088242L920.1818181818181,111.45844287872319L1051.6363636363637,82.63825721740722L1183.0909090909092,93.25623221397399L1314.5454545454545,56.09320707321166" style="fill: none;" fill="none"></path></g><g><path stroke="rgb(187, 187, 187)" stroke-width="2px" d="M131.45454545454547,369.3235821247102L262.90909090909093,232.8067768335343L394.3636363636363,181.9921500205994L525.8181818181819,158.48095185756688L657.2727272727273,122.83479638099675L788.7272727272726,108.42470355033879L920.1818181818181,105.39096422195439L1051.6363636363637,102.35733754634862L1183.0909090909092,94.77298922538762L1314.5454545454545,85.67188389301299" style="fill: none;" fill="none"></path></g><g><path stroke="rgb(204, 51, 17)" stroke-width="2px" d="M131.45454545454547,375.391060781479L262.90909090909093,213.84607501029973L394.3636363636363,156.20559103488927L525.8181818181819,150.1382250308991L657.2727272727273,108.42470355033879L788.7272727272726,125.11015720367436L920.1818181818181,94.77298922538762L1051.6363636363637,104.6325857162476L1183.0909090909092,87.9472447156906L1314.5454545454545,65.19442505836486" style="fill: none;" fill="none"></path></g><g><path stroke="rgb(0, 153, 136)" stroke-width="2px" d="M131.45454545454547,362.4977249622346L262.90909090909093,276.03705532550816L394.3636363636363,172.13255352973943L525.8181818181819,168.34043569564824L657.2727272727273,156.96408219337468L788.7272727272726,117.52580888271336L920.1818181818181,115.25056071281438L1051.6363636363637,98.56521971225743L1183.0909090909092,115.25056071281438L1314.5454545454545,91.73936254978179" style="fill: none;" fill="none"></path></g><g><path stroke="rgb(238, 51, 119)" stroke-width="2px" d="M131.45454545454547,513.424735736847L262.90909090909093,195.64386434555058L394.3636363636363,138.7617588758469L525.8181818181819,81.12138755321502L657.2727272727273,105.39096422195439L788.7272727272726,60.64381606578826L920.1818181818181,82.63825721740722L1051.6363636363637,72.77866072654723L1183.0909090909092,87.18875355720519L1314.5454545454545,92.49774105548858" style="fill: none;" fill="none"></path></g><g><path stroke="rgb(255, 112, 67)" stroke-width="2px" d="M131.45454545454547,265.4190803289414L262.90909090909093,189.57638568878178L394.3636363636363,125.86853570938115L525.8181818181819,122.07641787528996L657.2727272727273,79.60451788902282L788.7272727272726,78.08764822483062L920.1818181818181,46.992101740837086L1051.6363636363637,62.16068572998046L1183.0909090909092,70.50341255664824L1314.5454545454545,60.64381606578826" style="fill: none;" fill="none"></path></g><g><path stroke="rgb(51, 187, 238)" stroke-width="2px" d="M131.45454545454547,256.3179749965668L262.90909090909093,188.05951602458958L394.3636363636363,141.03711969852452L525.8181818181819,166.06518752574925L657.2727272727273,84.9135053873062L788.7272727272726,77.32926971912383L920.1818181818181,80.3628963947296L1051.6363636363637,53.81795890331267L1183.0909090909092,50.78421957492827L1314.5454545454545,62.16068572998046" style="fill: none;" fill="none"></path></g><g><path stroke="rgb(51, 187, 238)" stroke-width="2px" d="M131.45454545454547,269.2111981630326L262.90909090909093,229.0146589994431L394.3636363636363,170.61568386554723L525.8181818181819,141.7954982042313L657.2727272727273,150.1382250308991L788.7272727272726,159.23933036327367L920.1818181818181,166.06518752574925L1051.6363636363637,188.05951602458958L1183.0909090909092,177.4415410280228L1314.5454545454545,189.57638568878178" style="fill: none;" fill="none"></path></g><g><path stroke="rgb(187, 187, 187)" stroke-width="2px" d="M131.45454545454547,274.52018566131596L262.90909090909093,214.60445351600652L394.3636363636363,252.52585716247566L525.8181818181819,181.233658862114L657.2727272727273,159.23933036327367L788.7272727272726,150.1382250308991L920.1818181818181,154.68872137069707L1051.6363636363637,131.93590171337132L1183.0909090909092,137.2448892116547L1314.5454545454545,158.48095185756688" style="fill: none;" fill="none"></path></g><g><path stroke="rgb(204, 51, 17)" stroke-width="2px" d="M131.45454545454547,368.5652036190034L262.90909090909093,288.93039114475255L394.3636363636363,216.87981433868413L525.8181818181819,225.9809196710587L657.2727272727273,188.818007183075L788.7272727272726,200.19436068534856L920.1818181818181,201.71123034954076L1051.6363636363637,175.16629285812382L1183.0909090909092,152.41347320079808L1314.5454545454545,153.1719643592835" style="fill: none;" fill="none"></path></g><g><path stroke="rgb(238, 51, 119)" stroke-width="2px" d="M131.45454545454547,270.7280678272248L262.90909090909093,212.32920534610753L394.3636363636363,189.57638568878178L525.8181818181819,153.1719643592835L657.2727272727273,169.09892685413365L788.7272727272726,175.16629285812382L920.1818181818181,172.89104468822484L1051.6363636363637,166.82356603145604L1183.0909090909092,194.12699468135838L1314.5454545454545,204.74496967792516" style="fill: none;" fill="none"></path></g><g><path stroke="rgb(255, 112, 67)" stroke-width="2px" d="M131.45454545454547,290.4471481561661L262.90909090909093,240.3910125017167L394.3636363636363,188.05951602458958L525.8181818181819,169.85730535984044L657.2727272727273,160.75620002746587L788.7272727272726,146.3461071968079L920.1818181818181,144.0707463741303L1051.6363636363637,147.8629768610001L1183.0909090909092,169.85730535984044L1314.5454545454545,176.68316252231602" style="fill: none;" fill="none"></path></g><g><path stroke="rgb(51, 187, 238)" stroke-width="2px" d="M131.45454545454547,295.7561356544495L262.90909090909093,225.9809196710587L394.3636363636363,191.85163385868077L525.8181818181819,186.54264636039738L657.2727272727273,190.3348768472672L788.7272727272726,169.09892685413365L920.1818181818181,158.48095185756688L1051.6363636363637,172.13255352973943L1183.0909090909092,179.71690185070042L1314.5454545454545,156.20559103488927" style="fill: none;" fill="none"></path></g><g><path stroke="rgb(204, 51, 17)" stroke-width="2px" d="M131.45454545454547,307.13260180950175L262.90909090909093,250.25060899257667L394.3636363636363,178.958410692215L525.8181818181819,165.30669636726384L657.2727272727273,194.12699468135838L788.7272727272726,196.40224285125737L920.1818181818181,178.958410692215L1051.6363636363637,185.0258893489838L1183.0909090909092,210.05395717620854L1314.5454545454545,203.98647851943974" style="fill: none;" fill="none"></path></g><g><path stroke="rgb(0, 153, 136)" stroke-width="2px" d="M131.45454545454547,310.92471964359294L262.90909090909093,216.12132318019871L394.3636363636363,185.0258893489838L525.8181818181819,185.0258893489838L657.2727272727273,145.5876160383225L788.7272727272726,188.818007183075L920.1818181818181,169.09892685413365L1051.6363636363637,175.16629285812382L1183.0909090909092,183.5090196847916L1314.5454545454545,166.06518752574925" style="fill: none;" fill="none"></path></g><g><path stroke="rgb(0, 119, 187)" stroke-width="2px" d="M131.45454545454547,354.15511078834544L262.90909090909093,276.03705532550816L394.3636363636363,232.8067768335343L525.8181818181819,172.89104468822484L657.2727272727273,151.6550946950913L788.7272727272726,149.37973387241368L920.1818181818181,200.95285184383397L1051.6363636363637,192.61012501716618L1183.0909090909092,151.6550946950913L1314.5454545454545,153.1719643592835" style="fill: none;" fill="none"></path></g><g><path stroke="rgb(0, 119, 187)" stroke-width="2px" d="M131.45454545454547,345.05389280319224L262.90909090909093,240.3910125017167L394.3636363636363,251.76736600399025L525.8181818181819,301.8236143112183L657.2727272727273,272.244937491417L788.7272727272726,307.13260180950175L920.1818181818181,284.37978215217595L1051.6363636363637,279.82917315959935L1183.0909090909092,290.4471481561661L1314.5454545454545,298.7898749828339" style="fill: none;" fill="none"></path></g><g><path stroke="rgb(238, 51, 119)" stroke-width="2px" d="M131.45454545454547,276.7955464839936L262.90909090909093,240.3910125017167L394.3636363636363,260.8685839891434L525.8181818181819,242.66626067161567L657.2727272727273,247.21686966419227L788.7272727272726,256.3179749965668L920.1818181818181,263.1438321590424L1051.6363636363637,263.1438321590424L1183.0909090909092,257.834844660759L1314.5454545454545,259.3517143249512" style="fill: none;" fill="none"></path></g><g><path stroke="rgb(255, 112, 67)" stroke-width="2px" d="M131.45454545454547,304.0988624811173L262.90909090909093,285.13816065788274L394.3636363636363,247.21686966419227L525.8181818181819,278.31230349540715L657.2727272727273,254.80110533237465L788.7272727272726,246.45837850570686L920.1818181818181,263.9022106647492L1051.6363636363637,258.5932231664658L1183.0909090909092,244.9416214942933L1314.5454545454545,285.89665181636815" style="fill: none;" fill="none"></path></g><g><path stroke="rgb(204, 51, 17)" stroke-width="2px" d="M131.45454545454547,342.02026612758647L262.90909090909093,261.6269624948502L394.3636363636363,261.6269624948502L525.8181818181819,238.8741428375245L657.2727272727273,263.9022106647492L788.7272727272726,262.385341000557L920.1818181818181,262.385341000557L1051.6363636363637,268.4528196573258L1183.0909090909092,266.9359499931336L1314.5454545454545,257.834844660759" style="fill: none;" fill="none"></path></g><g><path stroke="rgb(0, 153, 136)" stroke-width="2px" d="M131.45454545454547,302.5819928169251L262.90909090909093,270.7280678272248L394.3636363636363,298.0314964771271L525.8181818181819,265.4190803289414L657.2727272727273,253.28423566818245L788.7272727272726,263.1438321590424L920.1818181818181,266.9359499931336L1051.6363636363637,271.4865589857102L1183.0909090909092,269.969689321518L1314.5454545454545,282.86291248798375" style="fill: none;" fill="none"></path></g><g><path stroke="rgb(0, 119, 187)" stroke-width="2px" d="M131.45454545454547,314.7168374776841L262.90909090909093,316.2337071418763L394.3636363636363,246.45837850570686L525.8181818181819,246.45837850570686L657.2727272727273,238.1157643318177L788.7272727272726,245.70000000000007L920.1818181818181,238.1157643318177L1051.6363636363637,257.834844660759L1183.0909090909092,283.62140364646916L1314.5454545454545,246.45837850570686" style="fill: none;" fill="none"></path></g><g><path stroke="rgb(255, 112, 67)" stroke-width="2px" d="M131.45454545454547,290.4471481561661L262.90909090909093,310.16634113788615L394.3636363636363,258.5932231664658L525.8181818181819,260.110092830658L657.2727272727273,269.969689321518L788.7272727272726,293.4808874845505L920.1818181818181,305.6157321453095L1051.6363636363637,311.6830981492997L1183.0909090909092,301.0651231527329L1314.5454545454545,297.2730053186417" style="fill: none;" fill="none"></path></g><g><path stroke="rgb(51, 187, 238)" stroke-width="2px" d="M131.45454545454547,305.6157321453095L262.90909090909093,286.65503032207494L394.3636363636363,283.62140364646916L525.8181818181819,242.66626067161567L657.2727272727273,272.244937491417L788.7272727272726,273.7618071556092L920.1818181818181,279.07079465389256L1051.6363636363637,260.110092830658L1183.0909090909092,273.00331599712376L1314.5454545454545,266.9359499931336" style="fill: none;" fill="none"></path></g><g><path stroke="rgb(187, 187, 187)" stroke-width="2px" d="M131.45454545454547,282.86291248798375L262.90909090909093,281.34604282379155L394.3636363636363,309.40784997940074L525.8181818181819,278.31230349540715L657.2727272727273,257.834844660759L788.7272727272726,251.00898749828346L920.1818181818181,254.04272682666786L1051.6363636363637,314.7168374776841L1183.0909090909092,286.65503032207494L1314.5454545454545,285.13816065788274" style="fill: none;" fill="none"></path></g></g></g></g></g></g><g transform="translate(50, 378)" clip-path="url(#clip_1)"><clipPath id="clip_1"><rect width="1446" height="22"></rect></clipPath><g><g><line x1="0" y1="0" x2="0" y2="5" style="visibility: inherit;" fill="rgb(0, 0, 0)" stroke="rgb(204, 204, 204)" stroke-width="1px"></line><line x1="131.45454545454547" y1="0" x2="131.45454545454547" y2="5" style="visibility: inherit;" fill="rgb(0, 0, 0)" stroke="rgb(204, 204, 204)" stroke-width="1px"></line><line x1="262.90909090909093" y1="0" x2="262.90909090909093" y2="5" style="visibility: inherit;" fill="rgb(0, 0, 0)" stroke="rgb(204, 204, 204)" stroke-width="1px"></line><line x1="394.3636363636363" y1="0" x2="394.3636363636363" y2="5" style="visibility: inherit;" fill="rgb(0, 0, 0)" stroke="rgb(204, 204, 204)" stroke-width="1px"></line><line x1="525.8181818181819" y1="0" x2="525.8181818181819" y2="5" style="visibility: inherit;" fill="rgb(0, 0, 0)" stroke="rgb(204, 204, 204)" stroke-width="1px"></line><line x1="657.2727272727273" y1="0" x2="657.2727272727273" y2="5" style="visibility: inherit;" fill="rgb(0, 0, 0)" stroke="rgb(204, 204, 204)" stroke-width="1px"></line><line x1="788.7272727272726" y1="0" x2="788.7272727272726" y2="5" style="visibility: inherit;" fill="rgb(0, 0, 0)" stroke="rgb(204, 204, 204)" stroke-width="1px"></line><line x1="920.1818181818181" y1="0" x2="920.1818181818181" y2="5" style="visibility: inherit;" fill="rgb(0, 0, 0)" stroke="rgb(204, 204, 204)" stroke-width="1px"></line><line x1="1051.6363636363637" y1="0" x2="1051.6363636363637" y2="5" style="visibility: inherit;" fill="rgb(0, 0, 0)" stroke="rgb(204, 204, 204)" stroke-width="1px"></line><line x1="1183.0909090909092" y1="0" x2="1183.0909090909092" y2="5" style="visibility: inherit;" fill="rgb(0, 0, 0)" stroke="rgb(204, 204, 204)" stroke-width="1px"></line><line x1="1314.5454545454545" y1="0" x2="1314.5454545454545" y2="5" style="visibility: inherit;" fill="rgb(0, 0, 0)" stroke="rgb(204, 204, 204)" stroke-width="1px"></line><line x1="1446" y1="0" x2="1446" y2="5" style="visibility: inherit;" fill="rgb(0, 0, 0)" stroke="rgb(204, 204, 204)" stroke-width="1px"></line></g><g transform="translate(0, 8)"><text x="0" y="0" dx="0em" dy="0.95em" style="text-anchor: middle; visibility: hidden; font-family: &quot;Helvetica Neue&quot;, sans-serif; font-size: 12px; font-weight: 200;" fill="rgb(50, 49, 63)" stroke="none" stroke-width="1px">-1</text><text x="131.45454545454547" y="0" dx="0em" dy="0.95em" style="text-anchor: middle; visibility: inherit; font-family: &quot;Helvetica Neue&quot;, sans-serif; font-size: 12px; font-weight: 200;" fill="rgb(50, 49, 63)" stroke="none" stroke-width="1px">0</text><text x="262.90909090909093" y="0" dx="0em" dy="0.95em" style="text-anchor: middle; visibility: inherit; font-family: &quot;Helvetica Neue&quot;, sans-serif; font-size: 12px; font-weight: 200;" fill="rgb(50, 49, 63)" stroke="none" stroke-width="1px">1</text><text x="394.3636363636363" y="0" dx="0em" dy="0.95em" style="text-anchor: middle; visibility: inherit; font-family: &quot;Helvetica Neue&quot;, sans-serif; font-size: 12px; font-weight: 200;" fill="rgb(50, 49, 63)" stroke="none" stroke-width="1px">2</text><text x="525.8181818181819" y="0" dx="0em" dy="0.95em" style="text-anchor: middle; visibility: inherit; font-family: &quot;Helvetica Neue&quot;, sans-serif; font-size: 12px; font-weight: 200;" fill="rgb(50, 49, 63)" stroke="none" stroke-width="1px">3</text><text x="657.2727272727273" y="0" dx="0em" dy="0.95em" style="text-anchor: middle; visibility: inherit; font-family: &quot;Helvetica Neue&quot;, sans-serif; font-size: 12px; font-weight: 200;" fill="rgb(50, 49, 63)" stroke="none" stroke-width="1px">4</text><text x="788.7272727272726" y="0" dx="0em" dy="0.95em" style="text-anchor: middle; visibility: inherit; font-family: &quot;Helvetica Neue&quot;, sans-serif; font-size: 12px; font-weight: 200;" fill="rgb(50, 49, 63)" stroke="none" stroke-width="1px">5</text><text x="920.1818181818181" y="0" dx="0em" dy="0.95em" style="text-anchor: middle; visibility: inherit; font-family: &quot;Helvetica Neue&quot;, sans-serif; font-size: 12px; font-weight: 200;" fill="rgb(50, 49, 63)" stroke="none" stroke-width="1px">6</text><text x="1051.6363636363637" y="0" dx="0em" dy="0.95em" style="text-anchor: middle; visibility: inherit; font-family: &quot;Helvetica Neue&quot;, sans-serif; font-size: 12px; font-weight: 200;" fill="rgb(50, 49, 63)" stroke="none" stroke-width="1px">7</text><text x="1183.0909090909092" y="0" dx="0em" dy="0.95em" style="text-anchor: middle; visibility: inherit; font-family: &quot;Helvetica Neue&quot;, sans-serif; font-size: 12px; font-weight: 200;" fill="rgb(50, 49, 63)" stroke="none" stroke-width="1px">8</text><text x="1314.5454545454545" y="0" dx="0em" dy="0.95em" style="text-anchor: middle; visibility: inherit; font-family: &quot;Helvetica Neue&quot;, sans-serif; font-size: 12px; font-weight: 200;" fill="rgb(50, 49, 63)" stroke="none" stroke-width="1px">9</text><text x="1446" y="0" dx="0em" dy="0.95em" style="text-anchor: middle; visibility: hidden; font-family: &quot;Helvetica Neue&quot;, sans-serif; font-size: 12px; font-weight: 200;" fill="rgb(50, 49, 63)" stroke="none" stroke-width="1px">10</text></g><line x1="0" y1="0" x2="1446" y2="0" fill="rgb(0, 0, 0)" stroke="rgb(204, 204, 204)" stroke-width="1px"></line></g></g></g></g></svg>