<svg viewBox="0 0 330 200" xmlns="http://www.w3.org/2000/svg"><g><g><g><g><g><line x1="50" y1="178" x2="45" y2="178" style="visibility: inherit;" fill="rgb(0, 0, 0)" stroke="rgb(204, 204, 204)" stroke-width="1px"></line><line x1="50" y1="158.2222222222223" x2="45" y2="158.2222222222223" style="visibility: inherit;" fill="rgb(0, 0, 0)" stroke="rgb(204, 204, 204)" stroke-width="1px"></line><line x1="50" y1="138.4444444444445" x2="45" y2="138.4444444444445" style="visibility: inherit;" fill="rgb(0, 0, 0)" stroke="rgb(204, 204, 204)" stroke-width="1px"></line><line x1="50" y1="118.6666666666667" x2="45" y2="118.6666666666667" style="visibility: inherit;" fill="rgb(0, 0, 0)" stroke="rgb(204, 204, 204)" stroke-width="1px"></line><line x1="50" y1="98.8888888888889" x2="45" y2="98.8888888888889" style="visibility: inherit;" fill="rgb(0, 0, 0)" stroke="rgb(204, 204, 204)" stroke-width="1px"></line><line x1="50" y1="79.1111111111111" x2="45" y2="79.1111111111111" style="visibility: inherit;" fill="rgb(0, 0, 0)" stroke="rgb(204, 204, 204)" stroke-width="1px"></line><line x1="50" y1="59.3333333333333" x2="45" y2="59.3333333333333" style="visibility: inherit;" fill="rgb(0, 0, 0)" stroke="rgb(204, 204, 204)" stroke-width="1px"></line><line x1="50" y1="39.5555555555556" x2="45" y2="39.5555555555556" style="visibility: inherit;" fill="rgb(0, 0, 0)" stroke="rgb(204, 204, 204)" stroke-width="1px"></line><line x1="50" y1="19.7777777777778" x2="45" y2="19.7777777777778" style="visibility: inherit;" fill="rgb(0, 0, 0)" stroke="rgb(204, 204, 204)" stroke-width="1px"></line><line x1="50" y1="0" x2="45" y2="0" style="visibility: inherit;" fill="rgb(0, 0, 0)" stroke="rgb(204, 204, 204)" stroke-width="1px"></line></g><g transform="translate(40, 0)"><text x="0" y="178" dx="0em" dy="0.3em" style="text-anchor: end; visibility: hidden; font-family: &quot;Helvetica Neue&quot;, sans-serif; font-size: 12px; font-weight: 200;" fill="rgb(50, 49, 63)" stroke="none" stroke-width="1px">0.68</text><text x="0" y="158.2222222222223" dx="0em" dy="0.3em" style="text-anchor: end; visibility: inherit; font-family: &quot;Helvetica Neue&quot;, sans-serif; font-size: 12px; font-weight: 200;" fill="rgb(50, 49, 63)" stroke="none" stroke-width="1px">0.7</text><text x="0" y="138.4444444444445" dx="0em" dy="0.3em" style="text-anchor: end; visibility: hidden; font-family: &quot;Helvetica Neue&quot;, sans-serif; font-size: 12px; font-weight: 200;" fill="rgb(50, 49, 63)" stroke="none" stroke-width="1px">0.72</text><text x="0" y="118.6666666666667" dx="0em" dy="0.3em" style="text-anchor: end; visibility: inherit; font-family: &quot;Helvetica Neue&quot;, sans-serif; font-size: 12px; font-weight: 200;" fill="rgb(50, 49, 63)" stroke="none" stroke-width="1px">0.74</text><text x="0" y="98.8888888888889" dx="0em" dy="0.3em" style="text-anchor: end; visibility: hidden; font-family: &quot;Helvetica Neue&quot;, sans-serif; font-size: 12px; font-weight: 200;" fill="rgb(50, 49, 63)" stroke="none" stroke-width="1px">0.76</text><text x="0" y="79.1111111111111" dx="0em" dy="0.3em" style="text-anchor: end; visibility: inherit; font-family: &quot;Helvetica Neue&quot;, sans-serif; font-size: 12px; font-weight: 200;" fill="rgb(50, 49, 63)" stroke="none" stroke-width="1px">0.78</text><text x="0" y="59.3333333333333" dx="0em" dy="0.3em" style="text-anchor: end; visibility: hidden; font-family: &quot;Helvetica Neue&quot;, sans-serif; font-size: 12px; font-weight: 200;" fill="rgb(50, 49, 63)" stroke="none" stroke-width="1px">0.8</text><text x="0" y="39.5555555555556" dx="0em" dy="0.3em" style="text-anchor: end; visibility: inherit; font-family: &quot;Helvetica Neue&quot;, sans-serif; font-size: 12px; font-weight: 200;" fill="rgb(50, 49, 63)" stroke="none" stroke-width="1px">0.82</text><text x="0" y="19.7777777777778" dx="0em" dy="0.3em" style="text-anchor: end; visibility: hidden; font-family: &quot;Helvetica Neue&quot;, sans-serif; font-size: 12px; font-weight: 200;" fill="rgb(50, 49, 63)" stroke="none" stroke-width="1px">0.84</text><text x="0" y="0" dx="0em" dy="0.3em" style="text-anchor: end; visibility: hidden; font-family: &quot;Helvetica Neue&quot;, sans-serif; font-size: 12px; font-weight: 200;" fill="rgb(50, 49, 63)" stroke="none" stroke-width="1px">0.86</text></g><line x1="50" y1="0" x2="50" y2="178" fill="rgb(0, 0, 0)" stroke="rgb(204, 204, 204)" stroke-width="1px"></line></g></g><g transform="translate(50, 0)" clip-path="url(#clip_0)"><clipPath id="clip_0"><rect width="280" height="178"></rect></clipPath><g><g><g><line x1="0" y1="0" x2="0" y2="178" fill="rgb(0, 0, 0)" stroke="rgb(60, 60, 60)" stroke-width="1px" opacity="0.25"></line><line x1="25.454545454545457" y1="0" x2="25.454545454545457" y2="178" fill="rgb(0, 0, 0)" stroke="rgb(60, 60, 60)" stroke-width="1px" opacity="0.25"></line><line x1="50.909090909090914" y1="0" x2="50.909090909090914" y2="178" fill="rgb(0, 0, 0)" stroke="rgb(60, 60, 60)" stroke-width="1px" opacity="0.25"></line><line x1="76.36363636363636" y1="0" x2="76.36363636363636" y2="178" fill="rgb(0, 0, 0)" stroke="rgb(60, 60, 60)" stroke-width="1px" opacity="0.25"></line><line x1="101.81818181818183" y1="0" x2="101.81818181818183" y2="178" fill="rgb(0, 0, 0)" stroke="rgb(60, 60, 60)" stroke-width="1px" opacity="0.25"></line><line x1="127.27272727272727" y1="0" x2="127.27272727272727" y2="178" fill="rgb(0, 0, 0)" stroke="rgb(60, 60, 60)" stroke-width="1px" opacity="0.25"></line><line x1="152.72727272727272" y1="0" x2="152.72727272727272" y2="178" fill="rgb(0, 0, 0)" stroke="rgb(60, 60, 60)" stroke-width="1px" opacity="0.25"></line><line x1="178.1818181818182" y1="0" x2="178.1818181818182" y2="178" fill="rgb(0, 0, 0)" stroke="rgb(60, 60, 60)" stroke-width="1px" opacity="0.25"></line><line x1="203.63636363636365" y1="0" x2="203.63636363636365" y2="178" fill="rgb(0, 0, 0)" stroke="rgb(60, 60, 60)" stroke-width="1px" opacity="0.25"></line><line x1="229.0909090909091" y1="0" x2="229.0909090909091" y2="178" fill="rgb(0, 0, 0)" stroke="rgb(60, 60, 60)" stroke-width="1px" opacity="0.25"></line><line x1="254.54545454545453" y1="0" x2="254.54545454545453" y2="178" fill="rgb(0, 0, 0)" stroke="rgb(60, 60, 60)" stroke-width="1px" opacity="0.25"></line><line x1="280" y1="0" x2="280" y2="178" fill="rgb(0, 0, 0)" stroke="rgb(60, 60, 60)" stroke-width="1px" opacity="0.25"></line></g><g><line x1="0" y1="178" x2="280" y2="178" fill="rgb(0, 0, 0)" stroke="rgb(60, 60, 60)" stroke-width="1px" opacity="0.25"></line><line x1="0" y1="158.2222222222223" x2="280" y2="158.2222222222223" fill="rgb(0, 0, 0)" stroke="rgb(60, 60, 60)" stroke-width="1px" opacity="0.25"></line><line x1="0" y1="138.4444444444445" x2="280" y2="138.4444444444445" fill="rgb(0, 0, 0)" stroke="rgb(60, 60, 60)" stroke-width="1px" opacity="0.25"></line><line x1="0" y1="118.6666666666667" x2="280" y2="118.6666666666667" fill="rgb(0, 0, 0)" stroke="rgb(60, 60, 60)" stroke-width="1px" opacity="0.25"></line><line x1="0" y1="98.8888888888889" x2="280" y2="98.8888888888889" fill="rgb(0, 0, 0)" stroke="rgb(60, 60, 60)" stroke-width="1px" opacity="0.25"></line><line x1="0" y1="79.1111111111111" x2="280" y2="79.1111111111111" fill="rgb(0, 0, 0)" stroke="rgb(60, 60, 60)" stroke-width="1px" opacity="0.25"></line><line x1="0" y1="59.3333333333333" x2="280" y2="59.3333333333333" fill="rgb(0, 0, 0)" stroke="rgb(60, 60, 60)" stroke-width="1px" opacity="0.25"></line><line x1="0" y1="39.5555555555556" x2="280" y2="39.5555555555556" fill="rgb(0, 0, 0)" stroke="rgb(60, 60, 60)" stroke-width="1px" opacity="0.25"></line><line x1="0" y1="19.7777777777778" x2="280" y2="19.7777777777778" fill="rgb(0, 0, 0)" stroke="rgb(60, 60, 60)" stroke-width="1px" opacity="0.25"></line><line x1="0" y1="0" x2="280" y2="0" fill="rgb(0, 0, 0)" stroke="rgb(60, 60, 60)" stroke-width="1px" opacity="0.25"></line></g></g></g><g><g><line x1="0" y1="850.4444444444448" x2="280" y2="850.4444444444448" fill="rgb(0, 0, 0)" stroke="rgb(153, 153, 153)" stroke-width="1.5px"></line></g></g><g><g><line x1="25.454545454545457" y1="0" x2="25.454545454545457" y2="178" fill="rgb(0, 0, 0)" stroke="rgb(153, 153, 153)" stroke-width="1.5px"></line></g></g><g><g><g><g><g><path stroke="rgb(0, 153, 136)" stroke-width="2px" d="M25.454545454545457,144.4920802381304L50.909090909090914,109.2241745088469L76.36363636363636,85.94939706257662L101.81818181818183,66.43464731619918L127.27272727272727,52.32902397200556L152.72727272727272,41.08854869242103L178.1818181818182,37.65796854881734L203.63636363636365,28.36216134219933L229.0909090909091,24.382623576566743L254.54545454545453,24.01946471933718" style="fill: none;" fill="none"></path></g><g><path stroke="rgb(0, 119, 187)" stroke-width="2px" d="M25.454545454545457,308.777789036433L50.909090909090914,174.11857589057908L76.36363636363636,131.29517492793096L101.81818181818183,94.10087526061211L127.27272727272727,80.04285282068027L152.72727272727272,55.09474440922013L178.1818181818182,39.126397521184884L203.63636363636365,28.92905620646019L229.0909090909091,20.95806806637964L254.54545454545453,19.44328669632523" style="fill: none;" fill="none"></path></g><g><path stroke="rgb(238, 51, 119)" stroke-width="2px" d="M25.454545454545457,119.09522721502519L50.909090909090914,91.22621920429681L76.36363636363636,80.24870084478748L101.81818181818183,65.11746837413561L127.27272727272727,53.77544015406043L152.72727272727272,47.00752271677129L178.1818181818182,43.590436534417734L203.63636363636365,35.56777647921331L229.0909090909091,32.97613009433192L254.54545454545453,23.760209987517328" style="fill: none;" fill="none"></path></g><g><path stroke="rgb(187, 187, 187)" stroke-width="2px" d="M25.454545454545457,173.46031045913702L50.909090909090914,129.06718057825793L76.36363636363636,101.98336686090458L101.81818181818183,84.37460543807491L127.27272727272727,67.35478035043779L152.72727272727272,54.82839692422773L178.1818181818182,46.97421196666261L203.63636363636365,41.71490312410617L229.0909090909091,37.005626963202786L254.54545454545453,32.29699842591083" style="fill: none;" fill="none"></path></g><g><path stroke="rgb(204, 51, 17)" stroke-width="2px" d="M25.454545454545457,176.63494655821063L50.909090909090914,124.10304384008978L76.36363636363636,92.7119264018799L101.81818181818183,77.32751079808793L127.27272727272727,60.0974788951807L152.72727272727272,54.158253143863874L178.1818181818182,44.33262273968907L203.63636363636365,40.60054106264161L229.0909090909091,34.91937313052608L254.54545454545453,26.813357654126605" style="fill: none;" fill="none"></path></g><g><path stroke="rgb(0, 153, 136)" stroke-width="2px" d="M25.454545454545457,169.88887431886465L50.909090909090914,141.77321684662633L76.36363636363636,105.66623938449348L101.81818181818183,88.72655849080236L127.27272727272727,77.47006982431859L152.72727272727272,62.73798380196007L178.1818181818182,53.77373519021913L203.63636363636365,45.01378788963845L229.0909090909091,43.237741208580786L254.54545454545453,37.32519037608512" style="fill: none;" fill="none"></path></g><g><path stroke="rgb(238, 51, 119)" stroke-width="2px" d="M25.454545454545457,248.8571515613133L50.909090909090914,145.51978245687678L76.36363636363636,98.70161208565382L101.81818181818183,64.23033924557062L127.27272727272727,51.9121207249855L152.72727272727272,35.44792956867329L178.1818181818182,30.610492296296826L203.63636363636365,25.70489470880557L229.0909090909091,25.758836800534766L254.54545454545453,26.88508006536682" style="fill: none;" fill="none"></path></g><g><path stroke="rgb(255, 112, 67)" stroke-width="2px" d="M25.454545454545457,119.09522721502519L50.909090909090914,94.4323691405542L76.36363636363636,70.0101912655204L101.81818181818183,58.26136424502708L127.27272727272727,42.73269430706952L152.72727272727272,33.811103045215674L178.1818181818182,22.107876460798195L203.63636363636365,18.376802834577887L229.0909090909091,17.876157107184184L254.54545454545453,15.543591357542084" style="fill: none;" fill="none"></path></g><g><path stroke="rgb(51, 187, 238)" stroke-width="2px" d="M25.454545454545457,114.3333320087857L50.909090909090914,92.13674875188542L76.36363636363636,72.88263486351637L101.81818181818183,70.26605534005914L127.27272727272727,50.79981316884553L152.72727272727272,38.390922641416324L178.1818181818182,31.88545937989622L203.63636363636365,22.517953091035906L229.0909090909091,16.29807057800852L254.54545454545453,14.899410882411075" style="fill: none;" fill="none"></path></g><g><path stroke="rgb(51, 187, 238)" stroke-width="2px" d="M25.454545454545457,121.07934530576073L50.909090909090914,108.0080594662993L76.36363636363636,88.55435477942855L101.81818181818183,73.07585608595335L127.27272727272727,66.97417687656785L152.72727272727272,65.55909936134613L178.1818181818182,66.1853980342255L203.63636363636365,71.14070609999487L229.0909090909091,71.9012726722751L254.54545454545453,74.85899162853404" style="fill: none;" fill="none"></path></g><g><path stroke="rgb(187, 187, 187)" stroke-width="2px" d="M25.454545454545457,123.85712242126468L50.909090909090914,104.37346344344498L76.36363636363636,108.40186235964512L101.81818181818183,93.28033620447096L127.27272727272727,80.58855615582362L152.72727272727272,71.60209601608761L178.1818181818182,67.38779912263796L203.63636363636365,60.160718557532306L229.0909090909091,56.945227876044186L254.54545454545453,59.38563695453233" style="fill: none;" fill="none"></path></g><g><path stroke="rgb(204, 51, 17)" stroke-width="2px" d="M25.454545454545457,173.0635104179383L50.909090909090914,147.1675149346821L76.36363636363636,120.16130506631575L101.81818181818183,110.32292762716087L127.27272727272727,96.96269384584818L152.72727272727272,92.02074664763187L178.1818181818182,89.49506917520051L203.63636363636365,82.47196406800381L229.0909090909091,73.57044148449798L254.54545454545453,68.3706673765794" style="fill: none;" fill="none"></path></g><g><path stroke="rgb(238, 51, 119)" stroke-width="2px" d="M25.454545454545457,121.87300433052914L50.909090909090914,102.88260764280784L76.36363636363636,91.02840071339834L101.81818181818183,77.1268582376572L127.27272727272727,73.53004252430293L152.72727272727272,72.84731546009395L178.1818181818182,71.97375470474029L203.63636363636365,70.19393829921374L229.0909090909091,74.78230220097628L254.54545454545453,79.7306915761428" style="fill: none;" fill="none"></path></g><g><path stroke="rgb(255, 112, 67)" stroke-width="2px" d="M25.454545454545457,132.19045376777652L50.909090909090914,115.91298135913601L76.36363636363636,97.0765200714614L101.81818181818183,84.3908973664037L127.27272727272727,75.83136536528315L152.72727272727272,67.98746513193035L178.1818181818182,62.98993323028132L203.63636363636365,60.83677627069517L229.0909090909091,64.1034765781448L254.54545454545453,67.47534886555258" style="fill: none;" fill="none"></path></g><g><path stroke="rgb(51, 187, 238)" stroke-width="2px" d="M25.454545454545457,134.96823088328057L50.909090909090914,112.27842196920336L76.36363636363636,96.27984714069868L101.81818181818183,87.91330637644344L127.27272727272727,84.45503898778631L152.72727272727272,77.96301326485317L178.1818181818182,71.98253834883481L203.63636363636365,71.30627850819918L229.0909090909091,72.47227041951706L254.54545454545453,68.32991981611879" style="fill: none;" fill="none"></path></g><g><path stroke="rgb(204, 51, 17)" stroke-width="2px" d="M25.454545454545457,140.92064409785803L50.909090909090914,122.42350970023529L76.36363636363636,97.89356302261102L101.81818181818183,83.7580826237743L127.27272727272727,82.91977051233052L152.72727272727272,82.94628569530374L178.1818181818182,79.27847390555478L203.63636363636365,78.38307115976365L229.0909090909091,83.02847391320013L254.54545454545453,84.57355610026063" style="fill: none;" fill="none"></path></g><g><path stroke="rgb(0, 153, 136)" stroke-width="2px" d="M25.454545454545457,142.9047621885936L50.909090909090914,112.07618043727447L76.36363636363636,94.37591966604268L101.81818181818183,86.512758086241L127.27272727272727,73.66082179509347L152.72727272727272,75.86721348112063L178.1818181818182,72.97434546838107L203.63636363636365,72.53542096386684L229.0909090909091,74.0000494591872L254.54545454545453,71.28744315072899" style="fill: none;" fill="none"></path></g><g><path stroke="rgb(0, 119, 187)" stroke-width="2px" d="M25.454545454545457,165.52383809619485L50.909090909090914,140.12106827011547L76.36363636363636,120.88288992034973L101.81818181818183,98.12401472051317L127.27272727272727,81.6717627836772L152.72727272727272,72.07548681525856L178.1818181818182,77.43834244212141L203.63636363636365,78.85781053731185L229.0909090909091,71.22893757453818L254.54545454545453,66.95116147498283" style="fill: none;" fill="none"></path></g><g><path stroke="rgb(0, 119, 187)" stroke-width="2px" d="M25.454545454545457,160.7618839475843L50.909090909090914,126.72715226000791L76.36363636363636,119.26468490690567L101.81818181818183,127.8233172196469L127.27272727272727,125.6227226202148L152.72727272727272,131.9257639117689L178.1818181818182,130.7515157852177L203.63636363636365,129.11087671076L229.0909090909091,130.32902777387014L254.54545454545453,132.7808025000033" style="fill: none;" fill="none"></path></g><g><path stroke="rgb(238, 51, 119)" stroke-width="2px" d="M25.454545454545457,125.04764042960286L50.909090909090914,113.20945536600495L76.36363636363636,114.97968989883096L101.81818181818183,111.4483563857333L127.27272727272727,110.64738366059368L152.72727272727272,112.16606609540304L178.1818181818182,114.48184654976319L203.63636363636365,115.84602008105209L229.0909090909091,115.56160245408566L254.54545454545453,115.70298217786315" style="fill: none;" fill="none"></path></g><g><path stroke="rgb(255, 112, 67)" stroke-width="2px" d="M25.454545454545457,139.33332604832123L50.909090909090914,133.16760237147312L76.36363636363636,121.2496307514986L101.81818181818183,123.33128774085657L127.27272727272727,119.15273026532199L152.72727272727272,115.04153731831607L178.1818181818182,116.35708144367138L203.63636363636365,116.02498132621895L229.0909090909091,113.00133524536446L254.54545454545453,119.61978555769292" style="fill: none;" fill="none"></path></g><g><path stroke="rgb(204, 51, 17)" stroke-width="2px" d="M25.454545454545457,159.17462484041866L50.909090909090914,133.03197989565228L76.36363636363636,124.99065277984973L101.81818181818183,116.02121684838848L127.27272727272727,116.99435349469626L152.72727272727272,117.20594842301676L178.1818181818182,117.32780085216572L203.63636363636365,118.66480300043965L229.0909090909091,119.14899880776869L254.54545454545453,117.56528026616216" style="fill: none;" fill="none"></path></g><g><path stroke="rgb(0, 153, 136)" stroke-width="2px" d="M25.454545454545457,138.5396670235527L50.909090909090914,128.18126883025025L76.36363636363636,132.21054132762177L101.81818181818183,126.26456884429655L127.27272727272727,120.49554504422483L152.72727272727272,119.42809455617619L178.1818181818182,119.61404119785148L203.63636363636365,120.67249437292361L229.0909090909091,120.99040818737808L254.54545454545453,123.83802840031586" style="fill: none;" fill="none"></path></g><g><path stroke="rgb(0, 119, 187)" stroke-width="2px" d="M25.454545454545457,144.88888027932913L50.909090909090914,145.38214256942754L76.36363636363636,127.09439459343764L101.81818181818183,118.97024777297848L127.27272727272727,112.92718683534817L152.72727272727272,111.21754957098926L178.1818181818182,108.63167919814045L203.63636363636365,111.2203252498537L229.0909090909091,118.1025389515642L254.54545454545453,114.58703665068104" style="fill: none;" fill="none"></path></g><g><path stroke="rgb(255, 112, 67)" stroke-width="2px" d="M25.454545454545457,132.19045376777652L50.909090909090914,138.60282690613468L76.36363636363636,126.94604761920692L101.81818181818183,122.12745556370365L127.27272727272727,121.84953502163128L152.72727272727272,126.7642006622215L178.1818181818182,132.1565828882347L203.63636363636365,136.5983106297193L229.0909090909091,137.0522914018743L254.54545454545453,136.54417881567045" style="fill: none;" fill="none"></path></g><g><path stroke="rgb(51, 187, 238)" stroke-width="2px" d="M25.454545454545457,140.12698507308963L50.909090909090914,133.9612613962414L76.36363636363636,131.26302608494424L101.81818181818183,120.34946229751618L127.27272727272727,121.33832450694335L152.72727272727272,122.2126289171489L178.1818181818182,123.83705653125924L203.63636363636365,120.840187405773L229.0909090909091,121.7196218091162L254.54545454545453,120.9987455630525" style="fill: none;" fill="none"></path></g><g><path stroke="rgb(187, 187, 187)" stroke-width="2px" d="M25.454545454545457,128.22221758630553L50.909090909090914,127.72895529620692L76.36363636363636,134.99310292306856L101.81818181818183,130.84400503641362L127.27272727272727,124.13679197854117L152.72727272727272,118.95307751359798L178.1818181818182,116.60844312501277L203.63636363636365,127.87934802308149L229.0909090909091,128.799806395135L254.54545454545453,129.0411321320096" style="fill: none;" fill="none"></path></g></g></g></g><g opacity="0.2"><g><g><g><path stroke="rgb(0, 153, 136)" stroke-width="2px" d="M25.454545454545457,144.4920802381304L50.909090909090914,87.74601991971336L76.36363636363636,63.1428848637475L101.81818181818183,42.90478603045145L127.27272727272727,33.38093667560153L152.72727272727272,25.04760532908969L178.1818181818182,32.58727765083313L203.63636363636365,14.333355850643585L229.0909090909091,18.301592032114655L254.54545454545453,23.460346221923828" style="fill: none;" fill="none"></path></g><g><path stroke="rgb(0, 119, 187)" stroke-width="2px" d="M25.454545454545457,308.777789036433L50.909090909090914,92.11111508475412L76.36363636363636,89.33333796925017L101.81818181818183,49.25394034385681L127.27272727272727,61.15870783064102L152.72727272727272,19.492051098081788L178.1818181818182,15.523814916610718L203.63636363636365,13.539696825875154L229.0909090909091,8.777801619635682L254.54545454545453,17.111132966147522" style="fill: none;" fill="none"></path></g><g><path stroke="rgb(238, 51, 119)" stroke-width="2px" d="M25.454545454545457,119.09522721502519L50.909090909090914,74.25399332576329L76.36363636363636,69.49203917715286L101.81818181818183,46.873022211922546L127.27272727272727,38.53969086541068L152.72727272727272,37.34923179944357L178.1818181818182,38.53969086541068L203.63636363636365,23.460346221923828L229.0909090909091,29.01590045293173L254.54545454545453,9.571401702033143" style="fill: none;" fill="none"></path></g><g><path stroke="rgb(187, 187, 187)" stroke-width="2px" d="M25.454545454545457,173.46031045913702L50.909090909090914,102.03176448080276L76.36363636363636,75.44445239173042L101.81818181818183,63.1428848637475L127.27272727272727,44.49204513761731L152.72727272727272,36.9523728158739L178.1818181818182,35.36505476633707L203.63636363636365,33.777795659171204L229.0909090909091,29.809500535329192L254.54545454545453,25.04760532908969" style="fill: none;" fill="none"></path></g><g><path stroke="rgb(204, 51, 17)" stroke-width="2px" d="M25.454545454545457,176.63494655821063L50.909090909090914,92.11111508475412L76.36363636363636,61.95236685540941L101.81818181818183,58.77778969870674L127.27272727272727,36.9523728158739L152.72727272727272,45.68256314595541L178.1818181818182,29.809500535329192L203.63636363636365,34.96825472513834L229.0909090909091,26.238123337427766L254.54545454545453,14.333355850643585" style="fill: none;" fill="none"></path></g><g><path stroke="rgb(0, 153, 136)" stroke-width="2px" d="M25.454545454545457,169.88887431886465L50.909090909090914,124.65078144603308L76.36363636363636,70.28569820192125L101.81818181818183,68.30158011118573L127.27272727272727,62.349225838979095L152.72727272727272,41.71426802211337L178.1818181818182,40.52380895614624L203.63636363636365,31.79367756843567L229.0909090909091,40.52380895614624L254.54545454545453,28.22224142816333" style="fill: none;" fill="none"></path></g><g><path stroke="rgb(238, 51, 119)" stroke-width="2px" d="M25.454545454545457,248.8571515613133L50.909090909090914,82.58732467227514L76.36363636363636,52.825376484129166L101.81818181818183,22.666687197155426L127.27272727272727,35.36505476633707L152.72727272727272,11.95237877633835L178.1818181818182,23.460346221923828L203.63636363636365,18.301592032114655L229.0909090909091,25.841264353858094L254.54545454545453,28.61904146936206" style="fill: none;" fill="none"></path></g><g><path stroke="rgb(255, 112, 67)" stroke-width="2px" d="M25.454545454545457,119.09522721502519L50.909090909090914,79.4126885732015L76.36363636363636,46.079363187154144L101.81818181818183,44.09524509641858L127.27272727272727,21.873028172386995L152.72727272727272,21.079369147618593L178.1818181818182,4.8095064957936415L203.63636363636365,12.746037801106752L229.0909090909091,17.111132966147522L254.54545454545453,11.95237877633835" style="fill: none;" fill="none"></path></g><g><path stroke="rgb(51, 187, 238)" stroke-width="2px" d="M25.454545454545457,114.3333320087857L50.909090909090914,78.61902954843312L76.36363636363636,54.015894492467254L101.81818181818183,67.11112104521858L127.27272727272727,24.65080528789096L152.72727272727272,20.682569106419862L178.1818181818182,22.269828213585726L203.63636363636365,8.38094263606601L229.0909090909091,6.793624586529205L254.54545454545453,12.746037801106752" style="fill: none;" fill="none"></path></g><g><path stroke="rgb(51, 187, 238)" stroke-width="2px" d="M25.454545454545457,121.07934530576073L50.909090909090914,100.04764639006723L76.36363636363636,69.49203917715286L101.81818181818183,54.412694533665984L127.27272727272727,58.77778969870674L152.72727272727272,63.53968490494623L178.1818181818182,67.11112104521858L203.63636363636365,78.61902954843312L229.0909090909091,73.06347531742522L254.54545454545453,79.4126885732015" style="fill: none;" fill="none"></path></g><g><path stroke="rgb(187, 187, 187)" stroke-width="2px" d="M25.454545454545457,123.85712242126468L50.909090909090914,92.50791512595285L76.36363636363636,112.34921391805015L101.81818181818183,75.04759340816075L127.27272727272727,63.53968490494623L152.72727272727272,58.77778969870674L178.1818181818182,61.15870783064102L203.63636363636365,49.25394034385681L229.0909090909091,52.03171745936078L254.54545454545453,63.1428848637475" style="fill: none;" fill="none"></path></g><g><path stroke="rgb(204, 51, 17)" stroke-width="2px" d="M25.454545454545457,173.0635104179383L50.909090909090914,131.39685368537906L76.36363636363636,93.69843313429092L101.81818181818183,98.46032834053041L127.27272727272727,79.01588853200278L152.72727272727272,84.96824280420941L178.1818181818182,85.76190182897781L203.63636363636365,71.87301625145807L229.0909090909091,59.96824876467389L254.54545454545453,60.365107748243545" style="fill: none;" fill="none"></path></g><g><path stroke="rgb(238, 51, 119)" stroke-width="2px" d="M25.454545454545457,121.87300433052914L50.909090909090914,91.3174560599857L76.36363636363636,79.4126885732015L101.81818181818183,60.365107748243545L127.27272727272727,68.6984390947554L152.72727272727272,71.87301625145807L178.1818181818182,70.68255718549094L203.63636363636365,67.50792108641731L229.0909090909091,81.79366564750673L254.54545454545453,87.34921987851463" style="fill: none;" fill="none"></path></g><g><path stroke="rgb(255, 112, 67)" stroke-width="2px" d="M25.454545454545457,132.19045376777652L50.909090909090914,106.00000066227386L76.36363636363636,78.61902954843312L101.81818181818183,69.09523913595413L127.27272727272727,64.33334392971464L152.72727272727272,56.79367160797119L178.1818181818182,55.60315359963312L203.63636363636365,57.58733063273961L229.0909090909091,69.09523913595413L254.54545454545453,72.66667527622648" style="fill: none;" fill="none"></path></g><g><path stroke="rgb(51, 187, 238)" stroke-width="2px" d="M25.454545454545457,134.96823088328046L50.909090909090914,98.46032834053041L76.36363636363636,80.60314763916864L101.81818181818183,77.8253705236647L127.27272727272727,79.80954755677118L152.72727272727272,68.6984390947554L178.1818181818182,63.1428848637475L203.63636363636365,70.28569820192125L229.0909090909091,74.25399332576329L254.54545454545453,61.95236685540941" style="fill: none;" fill="none"></path></g><g><path stroke="rgb(204, 51, 17)" stroke-width="2px" d="M25.454545454545457,140.92064409785803L50.909090909090914,111.15875485208302L76.36363636363636,73.85713434219362L101.81818181818183,66.71426206164891L127.27272727272727,81.79366564750673L152.72727272727272,82.98412471347388L178.1818181818182,73.85713434219362L203.63636363636365,77.03177044126724L229.0909090909091,90.12699699401857L254.54545454545453,86.95236089494496" style="fill: none;" fill="none"></path></g><g><path stroke="rgb(0, 153, 136)" stroke-width="2px" d="M25.454545454545457,142.9047621885936L50.909090909090914,93.30157415072125L76.36363636363636,77.03177044126724L101.81818181818183,77.03177044126724L127.27272727272727,56.396812624401534L152.72727272727272,79.01588853200278L178.1818181818182,68.6984390947554L203.63636363636365,71.87301625145807L229.0909090909091,76.23811141649884L254.54545454545453,67.11112104521858" style="fill: none;" fill="none"></path></g><g><path stroke="rgb(0, 119, 187)" stroke-width="2px" d="M25.454545454545457,165.52383809619485L50.909090909090914,124.65078144603308L76.36363636363636,102.03176448080276L101.81818181818183,70.68255718549094L127.27272727272727,59.57144872347516L152.72727272727272,58.38093071513707L178.1818181818182,85.36510178777908L203.63636363636365,81.00000662273833L229.0909090909091,59.57144872347516L254.54545454545453,60.365107748243545" style="fill: none;" fill="none"></path></g><g><path stroke="rgb(0, 119, 187)" stroke-width="2px" d="M25.454545454545457,160.7618839475844L50.909090909090914,106.00000066227386L76.36363636363636,111.95235493448048L101.81818181818183,138.1428669823541L127.27272727272727,122.66666335529754L152.72727272727272,140.92064409785803L178.1818181818182,129.01587661107385L203.63636363636365,126.63489953676863L229.0909090909091,132.19045376777652L254.54545454545453,136.5555489328173" style="fill: none;" fill="none"></path></g><g><path stroke="rgb(238, 51, 119)" stroke-width="2px" d="M25.454545454545457,125.04764042960275L50.909090909090914,106.00000066227386L76.36363636363636,116.71430908309091L101.81818181818183,107.19045972824098L127.27272727272727,109.5714368025462L152.72727272727272,114.3333320087857L178.1818181818182,117.90476814905804L203.63636363636365,117.90476814905804L229.0909090909091,115.1269910335541L254.54545454545453,115.92065005832251" style="fill: none;" fill="none"></path></g><g><path stroke="rgb(255, 112, 67)" stroke-width="2px" d="M25.454545454545457,139.33332604832123L50.909090909090914,129.41267665227258L76.36363636363636,109.5714368025462L101.81818181818183,125.84124051200021L127.27272727272727,113.5396729840173L152.72727272727272,109.17457781897653L178.1818181818182,118.30156819025677L203.63636363636365,115.52379107475284L229.0909090909091,108.38097773657907L254.54545454545453,129.80953563584225" style="fill: none;" fill="none"></path></g><g><path stroke="rgb(204, 51, 17)" stroke-width="2px" d="M25.454545454545457,159.17462484041855L50.909090909090914,117.11110912428964L76.36363636363636,117.11110912428964L101.81818181818183,105.20634163750545L127.27272727272727,118.30156819025677L152.72727272727272,117.50790916548837L178.1818181818182,117.50790916548837L203.63636363636365,120.682545264562L229.0909090909091,119.8888862397936L254.54545454545453,115.1269910335541" style="fill: none;" fill="none"></path></g><g><path stroke="rgb(0, 153, 136)" stroke-width="2px" d="M25.454545454545457,138.53966702355282L50.909090909090914,121.87300433052914L76.36363636363636,136.15874889161856L101.81818181818183,119.09522721502519L127.27272727272727,112.74601395924888L152.72727272727272,117.90476814905804L178.1818181818182,119.8888862397936L203.63636363636365,122.26986331409881L229.0909090909091,121.47620428933041L254.54545454545453,128.22221758630545" style="fill: none;" fill="none"></path></g><g><path stroke="rgb(0, 119, 187)" stroke-width="2px" d="M25.454545454545457,144.88888027932913L50.909090909090914,145.68253930409753L76.36363636363636,109.17457781897653L101.81818181818183,109.17457781897653L127.27272727272727,104.80954159630672L152.72727272727272,108.7777777777778L178.1818181818182,104.80954159630672L203.63636363636365,115.1269910335541L229.0909090909091,128.61907656987512L254.54545454545453,109.17457781897653" style="fill: none;" fill="none"></path></g><g><path stroke="rgb(255, 112, 67)" stroke-width="2px" d="M25.454545454545457,132.19045376777652L50.909090909090914,142.50796214739486L76.36363636363636,115.52379107475284L101.81818181818183,116.31745009952124L127.27272727272727,121.47620428933041L152.72727272727272,133.77777181731335L178.1818181818182,140.12698507308963L203.63636363636365,143.30156222979232L229.0909090909091,137.74600799878442L254.54545454545453,135.7618899080489" style="fill: none;" fill="none"></path></g><g><path stroke="rgb(51, 187, 238)" stroke-width="2px" d="M25.454545454545457,140.12698507308963L50.909090909090914,130.20633567704098L76.36363636363636,128.61907656987512L101.81818181818183,107.19045972824098L127.27272727272727,122.66666335529754L152.72727272727272,123.46032238006595L178.1818181818182,126.2380994955699L203.63636363636365,116.31745009952124L229.0909090909091,123.06346339649627L254.54545454545453,119.8888862397936" style="fill: none;" fill="none"></path></g><g><path stroke="rgb(187, 187, 187)" stroke-width="2px" d="M25.454545454545457,128.22221758630545L50.909090909090914,127.42855856153703L76.36363636363636,142.1111031638252L101.81818181818183,125.84124051200021L127.27272727272727,115.1269910335541L152.72727272727272,111.55555489328175L178.1818181818182,113.14287294281857L203.63636363636365,144.88888027932913L229.0909090909091,130.20633567704098L254.54545454545453,129.41267665227258" style="fill: none;" fill="none"></path></g></g></g></g></g></g><g transform="translate(50, 178)" clip-path="url(#clip_1)"><clipPath id="clip_1"><rect width="280" height="22"></rect></clipPath><g><g><line x1="0" y1="0" x2="0" y2="5" style="visibility: inherit;" fill="rgb(0, 0, 0)" stroke="rgb(204, 204, 204)" stroke-width="1px"></line><line x1="25.454545454545457" y1="0" x2="25.454545454545457" y2="5" style="visibility: inherit;" fill="rgb(0, 0, 0)" stroke="rgb(204, 204, 204)" stroke-width="1px"></line><line x1="50.909090909090914" y1="0" x2="50.909090909090914" y2="5" style="visibility: inherit;" fill="rgb(0, 0, 0)" stroke="rgb(204, 204, 204)" stroke-width="1px"></line><line x1="76.36363636363636" y1="0" x2="76.36363636363636" y2="5" style="visibility: inherit;" fill="rgb(0, 0, 0)" stroke="rgb(204, 204, 204)" stroke-width="1px"></line><line x1="101.81818181818183" y1="0" x2="101.81818181818183" y2="5" style="visibility: inherit;" fill="rgb(0, 0, 0)" stroke="rgb(204, 204, 204)" stroke-width="1px"></line><line x1="127.27272727272727" y1="0" x2="127.27272727272727" y2="5" style="visibility: inherit;" fill="rgb(0, 0, 0)" stroke="rgb(204, 204, 204)" stroke-width="1px"></line><line x1="152.72727272727272" y1="0" x2="152.72727272727272" y2="5" style="visibility: inherit;" fill="rgb(0, 0, 0)" stroke="rgb(204, 204, 204)" stroke-width="1px"></line><line x1="178.1818181818182" y1="0" x2="178.1818181818182" y2="5" style="visibility: inherit;" fill="rgb(0, 0, 0)" stroke="rgb(204, 204, 204)" stroke-width="1px"></line><line x1="203.63636363636365" y1="0" x2="203.63636363636365" y2="5" style="visibility: inherit;" fill="rgb(0, 0, 0)" stroke="rgb(204, 204, 204)" stroke-width="1px"></line><line x1="229.0909090909091" y1="0" x2="229.0909090909091" y2="5" style="visibility: inherit;" fill="rgb(0, 0, 0)" stroke="rgb(204, 204, 204)" stroke-width="1px"></line><line x1="254.54545454545453" y1="0" x2="254.54545454545453" y2="5" style="visibility: inherit;" fill="rgb(0, 0, 0)" stroke="rgb(204, 204, 204)" stroke-width="1px"></line><line x1="280" y1="0" x2="280" y2="5" style="visibility: inherit;" fill="rgb(0, 0, 0)" stroke="rgb(204, 204, 204)" stroke-width="1px"></line></g><g transform="translate(0, 8)"><text x="0" y="0" dx="0em" dy="0.95em" style="text-anchor: middle; visibility: hidden; font-family: &quot;Helvetica Neue&quot;, sans-serif; font-size: 12px; font-weight: 200;" fill="rgb(50, 49, 63)" stroke="none" stroke-width="1px">-1</text><text x="25.454545454545457" y="0" dx="0em" dy="0.95em" style="text-anchor: middle; visibility: inherit; font-family: &quot;Helvetica Neue&quot;, sans-serif; font-size: 12px; font-weight: 200;" fill="rgb(50, 49, 63)" stroke="none" stroke-width="1px">0</text><text x="50.909090909090914" y="0" dx="0em" dy="0.95em" style="text-anchor: middle; visibility: inherit; font-family: &quot;Helvetica Neue&quot;, sans-serif; font-size: 12px; font-weight: 200;" fill="rgb(50, 49, 63)" stroke="none" stroke-width="1px">1</text><text x="76.36363636363636" y="0" dx="0em" dy="0.95em" style="text-anchor: middle; visibility: inherit; font-family: &quot;Helvetica Neue&quot;, sans-serif; font-size: 12px; font-weight: 200;" fill="rgb(50, 49, 63)" stroke="none" stroke-width="1px">2</text><text x="101.81818181818183" y="0" dx="0em" dy="0.95em" style="text-anchor: middle; visibility: inherit; font-family: &quot;Helvetica Neue&quot;, sans-serif; font-size: 12px; font-weight: 200;" fill="rgb(50, 49, 63)" stroke="none" stroke-width="1px">3</text><text x="127.27272727272727" y="0" dx="0em" dy="0.95em" style="text-anchor: middle; visibility: inherit; font-family: &quot;Helvetica Neue&quot;, sans-serif; font-size: 12px; font-weight: 200;" fill="rgb(50, 49, 63)" stroke="none" stroke-width="1px">4</text><text x="152.72727272727272" y="0" dx="0em" dy="0.95em" style="text-anchor: middle; visibility: inherit; font-family: &quot;Helvetica Neue&quot;, sans-serif; font-size: 12px; font-weight: 200;" fill="rgb(50, 49, 63)" stroke="none" stroke-width="1px">5</text><text x="178.1818181818182" y="0" dx="0em" dy="0.95em" style="text-anchor: middle; visibility: inherit; font-family: &quot;Helvetica Neue&quot;, sans-serif; font-size: 12px; font-weight: 200;" fill="rgb(50, 49, 63)" stroke="none" stroke-width="1px">6</text><text x="203.63636363636365" y="0" dx="0em" dy="0.95em" style="text-anchor: middle; visibility: inherit; font-family: &quot;Helvetica Neue&quot;, sans-serif; font-size: 12px; font-weight: 200;" fill="rgb(50, 49, 63)" stroke="none" stroke-width="1px">7</text><text x="229.0909090909091" y="0" dx="0em" dy="0.95em" style="text-anchor: middle; visibility: inherit; font-family: &quot;Helvetica Neue&quot;, sans-serif; font-size: 12px; font-weight: 200;" fill="rgb(50, 49, 63)" stroke="none" stroke-width="1px">8</text><text x="254.54545454545453" y="0" dx="0em" dy="0.95em" style="text-anchor: middle; visibility: inherit; font-family: &quot;Helvetica Neue&quot;, sans-serif; font-size: 12px; font-weight: 200;" fill="rgb(50, 49, 63)" stroke="none" stroke-width="1px">9</text><text x="280" y="0" dx="0em" dy="0.95em" style="text-anchor: middle; visibility: hidden; font-family: &quot;Helvetica Neue&quot;, sans-serif; font-size: 12px; font-weight: 200;" fill="rgb(50, 49, 63)" stroke="none" stroke-width="1px">10</text></g><line x1="0" y1="0" x2="280" y2="0" fill="rgb(0, 0, 0)" stroke="rgb(204, 204, 204)" stroke-width="1px"></line></g></g></g></g></svg>