<svg viewBox="0 0 330 200" xmlns="http://www.w3.org/2000/svg"><g><g><g><g><g><line x1="50" y1="178" x2="45" y2="178" style="visibility: inherit;" fill="rgb(0, 0, 0)" stroke="rgb(204, 204, 204)" stroke-width="1px"></line><line x1="50" y1="165.28571428571428" x2="45" y2="165.28571428571428" style="visibility: inherit;" fill="rgb(0, 0, 0)" stroke="rgb(204, 204, 204)" stroke-width="1px"></line><line x1="50" y1="152.57142857142856" x2="45" y2="152.57142857142856" style="visibility: inherit;" fill="rgb(0, 0, 0)" stroke="rgb(204, 204, 204)" stroke-width="1px"></line><line x1="50" y1="139.85714285714283" x2="45" y2="139.85714285714283" style="visibility: inherit;" fill="rgb(0, 0, 0)" stroke="rgb(204, 204, 204)" stroke-width="1px"></line><line x1="50" y1="127.14285714285714" x2="45" y2="127.14285714285714" style="visibility: inherit;" fill="rgb(0, 0, 0)" stroke="rgb(204, 204, 204)" stroke-width="1px"></line><line x1="50" y1="114.42857142857143" x2="45" y2="114.42857142857143" style="visibility: inherit;" fill="rgb(0, 0, 0)" stroke="rgb(204, 204, 204)" stroke-width="1px"></line><line x1="50" y1="101.7142857142857" x2="45" y2="101.7142857142857" style="visibility: inherit;" fill="rgb(0, 0, 0)" stroke="rgb(204, 204, 204)" stroke-width="1px"></line><line x1="50" y1="89" x2="45" y2="89" style="visibility: inherit;" fill="rgb(0, 0, 0)" stroke="rgb(204, 204, 204)" stroke-width="1px"></line><line x1="50" y1="76.28571428571428" x2="45" y2="76.28571428571428" style="visibility: inherit;" fill="rgb(0, 0, 0)" stroke="rgb(204, 204, 204)" stroke-width="1px"></line><line x1="50" y1="63.571428571428584" x2="45" y2="63.571428571428584" style="visibility: inherit;" fill="rgb(0, 0, 0)" stroke="rgb(204, 204, 204)" stroke-width="1px"></line><line x1="50" y1="50.85714285714286" x2="45" y2="50.85714285714286" style="visibility: inherit;" fill="rgb(0, 0, 0)" stroke="rgb(204, 204, 204)" stroke-width="1px"></line><line x1="50" y1="38.14285714285714" x2="45" y2="38.14285714285714" style="visibility: inherit;" fill="rgb(0, 0, 0)" stroke="rgb(204, 204, 204)" stroke-width="1px"></line><line x1="50" y1="25.428571428571416" x2="45" y2="25.428571428571416" style="visibility: inherit;" fill="rgb(0, 0, 0)" stroke="rgb(204, 204, 204)" stroke-width="1px"></line><line x1="50" y1="12.714285714285694" x2="45" y2="12.714285714285694" style="visibility: inherit;" fill="rgb(0, 0, 0)" stroke="rgb(204, 204, 204)" stroke-width="1px"></line><line x1="50" y1="0" x2="45" y2="0" style="visibility: inherit;" fill="rgb(0, 0, 0)" stroke="rgb(204, 204, 204)" stroke-width="1px"></line></g><g transform="translate(40, 0)"><text x="0" y="178" dx="0em" dy="0.3em" style="text-anchor: end; visibility: hidden; font-family: &quot;Helvetica Neue&quot;, sans-serif; font-size: 12px; font-weight: 200;" fill="rgb(50, 49, 63)" stroke="none" stroke-width="1px">-0.2</text><text x="0" y="165.28571428571428" dx="0em" dy="0.3em" style="text-anchor: end; visibility: inherit; font-family: &quot;Helvetica Neue&quot;, sans-serif; font-size: 12px; font-weight: 200;" fill="rgb(50, 49, 63)" stroke="none" stroke-width="1px">-0.1</text><text x="0" y="152.57142857142856" dx="0em" dy="0.3em" style="text-anchor: end; visibility: hidden; font-family: &quot;Helvetica Neue&quot;, sans-serif; font-size: 12px; font-weight: 200;" fill="rgb(50, 49, 63)" stroke="none" stroke-width="1px">0</text><text x="0" y="139.85714285714283" dx="0em" dy="0.3em" style="text-anchor: end; visibility: inherit; font-family: &quot;Helvetica Neue&quot;, sans-serif; font-size: 12px; font-weight: 200;" fill="rgb(50, 49, 63)" stroke="none" stroke-width="1px">0.1</text><text x="0" y="127.14285714285714" dx="0em" dy="0.3em" style="text-anchor: end; visibility: hidden; font-family: &quot;Helvetica Neue&quot;, sans-serif; font-size: 12px; font-weight: 200;" fill="rgb(50, 49, 63)" stroke="none" stroke-width="1px">0.2</text><text x="0" y="114.42857142857143" dx="0em" dy="0.3em" style="text-anchor: end; visibility: inherit; font-family: &quot;Helvetica Neue&quot;, sans-serif; font-size: 12px; font-weight: 200;" fill="rgb(50, 49, 63)" stroke="none" stroke-width="1px">0.3</text><text x="0" y="101.7142857142857" dx="0em" dy="0.3em" style="text-anchor: end; visibility: hidden; font-family: &quot;Helvetica Neue&quot;, sans-serif; font-size: 12px; font-weight: 200;" fill="rgb(50, 49, 63)" stroke="none" stroke-width="1px">0.4</text><text x="0" y="89" dx="0em" dy="0.3em" style="text-anchor: end; visibility: inherit; font-family: &quot;Helvetica Neue&quot;, sans-serif; font-size: 12px; font-weight: 200;" fill="rgb(50, 49, 63)" stroke="none" stroke-width="1px">0.5</text><text x="0" y="76.28571428571428" dx="0em" dy="0.3em" style="text-anchor: end; visibility: hidden; font-family: &quot;Helvetica Neue&quot;, sans-serif; font-size: 12px; font-weight: 200;" fill="rgb(50, 49, 63)" stroke="none" stroke-width="1px">0.6</text><text x="0" y="63.571428571428584" dx="0em" dy="0.3em" style="text-anchor: end; visibility: inherit; font-family: &quot;Helvetica Neue&quot;, sans-serif; font-size: 12px; font-weight: 200;" fill="rgb(50, 49, 63)" stroke="none" stroke-width="1px">0.7</text><text x="0" y="50.85714285714286" dx="0em" dy="0.3em" style="text-anchor: end; visibility: hidden; font-family: &quot;Helvetica Neue&quot;, sans-serif; font-size: 12px; font-weight: 200;" fill="rgb(50, 49, 63)" stroke="none" stroke-width="1px">0.8</text><text x="0" y="38.14285714285714" dx="0em" dy="0.3em" style="text-anchor: end; visibility: inherit; font-family: &quot;Helvetica Neue&quot;, sans-serif; font-size: 12px; font-weight: 200;" fill="rgb(50, 49, 63)" stroke="none" stroke-width="1px">0.9</text><text x="0" y="25.428571428571416" dx="0em" dy="0.3em" style="text-anchor: end; visibility: hidden; font-family: &quot;Helvetica Neue&quot;, sans-serif; font-size: 12px; font-weight: 200;" fill="rgb(50, 49, 63)" stroke="none" stroke-width="1px">1</text><text x="0" y="12.714285714285694" dx="0em" dy="0.3em" style="text-anchor: end; visibility: inherit; font-family: &quot;Helvetica Neue&quot;, sans-serif; font-size: 12px; font-weight: 200;" fill="rgb(50, 49, 63)" stroke="none" stroke-width="1px">1.1</text><text x="0" y="0" dx="0em" dy="0.3em" style="text-anchor: end; visibility: hidden; font-family: &quot;Helvetica Neue&quot;, sans-serif; font-size: 12px; font-weight: 200;" fill="rgb(50, 49, 63)" stroke="none" stroke-width="1px">1.2</text></g><line x1="50" y1="0" x2="50" y2="178" fill="rgb(0, 0, 0)" stroke="rgb(204, 204, 204)" stroke-width="1px"></line></g></g><g transform="translate(50, 0)" clip-path="url(#clip_0)"><clipPath id="clip_0"><rect width="280" height="178"></rect></clipPath><g><g><g><line x1="0" y1="0" x2="0" y2="178" fill="rgb(0, 0, 0)" stroke="rgb(60, 60, 60)" stroke-width="1px" opacity="0.25"></line><line x1="25.454545454545457" y1="0" x2="25.454545454545457" y2="178" fill="rgb(0, 0, 0)" stroke="rgb(60, 60, 60)" stroke-width="1px" opacity="0.25"></line><line x1="50.909090909090914" y1="0" x2="50.909090909090914" y2="178" fill="rgb(0, 0, 0)" stroke="rgb(60, 60, 60)" stroke-width="1px" opacity="0.25"></line><line x1="76.36363636363636" y1="0" x2="76.36363636363636" y2="178" fill="rgb(0, 0, 0)" stroke="rgb(60, 60, 60)" stroke-width="1px" opacity="0.25"></line><line x1="101.81818181818183" y1="0" x2="101.81818181818183" y2="178" fill="rgb(0, 0, 0)" stroke="rgb(60, 60, 60)" stroke-width="1px" opacity="0.25"></line><line x1="127.27272727272727" y1="0" x2="127.27272727272727" y2="178" fill="rgb(0, 0, 0)" stroke="rgb(60, 60, 60)" stroke-width="1px" opacity="0.25"></line><line x1="152.72727272727272" y1="0" x2="152.72727272727272" y2="178" fill="rgb(0, 0, 0)" stroke="rgb(60, 60, 60)" stroke-width="1px" opacity="0.25"></line><line x1="178.1818181818182" y1="0" x2="178.1818181818182" y2="178" fill="rgb(0, 0, 0)" stroke="rgb(60, 60, 60)" stroke-width="1px" opacity="0.25"></line><line x1="203.63636363636365" y1="0" x2="203.63636363636365" y2="178" fill="rgb(0, 0, 0)" stroke="rgb(60, 60, 60)" stroke-width="1px" opacity="0.25"></line><line x1="229.0909090909091" y1="0" x2="229.0909090909091" y2="178" fill="rgb(0, 0, 0)" stroke="rgb(60, 60, 60)" stroke-width="1px" opacity="0.25"></line><line x1="254.54545454545453" y1="0" x2="254.54545454545453" y2="178" fill="rgb(0, 0, 0)" stroke="rgb(60, 60, 60)" stroke-width="1px" opacity="0.25"></line><line x1="280" y1="0" x2="280" y2="178" fill="rgb(0, 0, 0)" stroke="rgb(60, 60, 60)" stroke-width="1px" opacity="0.25"></line></g><g><line x1="0" y1="178" x2="280" y2="178" fill="rgb(0, 0, 0)" stroke="rgb(60, 60, 60)" stroke-width="1px" opacity="0.25"></line><line x1="0" y1="165.28571428571428" x2="280" y2="165.28571428571428" fill="rgb(0, 0, 0)" stroke="rgb(60, 60, 60)" stroke-width="1px" opacity="0.25"></line><line x1="0" y1="152.57142857142856" x2="280" y2="152.57142857142856" fill="rgb(0, 0, 0)" stroke="rgb(60, 60, 60)" stroke-width="1px" opacity="0.25"></line><line x1="0" y1="139.85714285714283" x2="280" y2="139.85714285714283" fill="rgb(0, 0, 0)" stroke="rgb(60, 60, 60)" stroke-width="1px" opacity="0.25"></line><line x1="0" y1="127.14285714285714" x2="280" y2="127.14285714285714" fill="rgb(0, 0, 0)" stroke="rgb(60, 60, 60)" stroke-width="1px" opacity="0.25"></line><line x1="0" y1="114.42857142857143" x2="280" y2="114.42857142857143" fill="rgb(0, 0, 0)" stroke="rgb(60, 60, 60)" stroke-width="1px" opacity="0.25"></line><line x1="0" y1="101.7142857142857" x2="280" y2="101.7142857142857" fill="rgb(0, 0, 0)" stroke="rgb(60, 60, 60)" stroke-width="1px" opacity="0.25"></line><line x1="0" y1="89" x2="280" y2="89" fill="rgb(0, 0, 0)" stroke="rgb(60, 60, 60)" stroke-width="1px" opacity="0.25"></line><line x1="0" y1="76.28571428571428" x2="280" y2="76.28571428571428" fill="rgb(0, 0, 0)" stroke="rgb(60, 60, 60)" stroke-width="1px" opacity="0.25"></line><line x1="0" y1="63.571428571428584" x2="280" y2="63.571428571428584" fill="rgb(0, 0, 0)" stroke="rgb(60, 60, 60)" stroke-width="1px" opacity="0.25"></line><line x1="0" y1="50.85714285714286" x2="280" y2="50.85714285714286" fill="rgb(0, 0, 0)" stroke="rgb(60, 60, 60)" stroke-width="1px" opacity="0.25"></line><line x1="0" y1="38.14285714285714" x2="280" y2="38.14285714285714" fill="rgb(0, 0, 0)" stroke="rgb(60, 60, 60)" stroke-width="1px" opacity="0.25"></line><line x1="0" y1="25.428571428571416" x2="280" y2="25.428571428571416" fill="rgb(0, 0, 0)" stroke="rgb(60, 60, 60)" stroke-width="1px" opacity="0.25"></line><line x1="0" y1="12.714285714285694" x2="280" y2="12.714285714285694" fill="rgb(0, 0, 0)" stroke="rgb(60, 60, 60)" stroke-width="1px" opacity="0.25"></line><line x1="0" y1="0" x2="280" y2="0" fill="rgb(0, 0, 0)" stroke="rgb(60, 60, 60)" stroke-width="1px" opacity="0.25"></line></g></g></g><g><g><line x1="0" y1="152.57142857142856" x2="280" y2="152.57142857142856" fill="rgb(0, 0, 0)" stroke="rgb(153, 153, 153)" stroke-width="1.5px"></line></g></g><g><g><line x1="25.454545454545457" y1="0" x2="25.454545454545457" y2="178" fill="rgb(0, 0, 0)" stroke="rgb(153, 153, 153)" stroke-width="1.5px"></line></g></g><g><g><g><g><g><path stroke="rgb(0, 153, 136)" stroke-width="2px" d="M25.454545454545457,81.5127409185682L50.909090909090914,88.91717429413707L76.36363636363636,94.87176063965663L101.81818181818183,99.50886468160677L127.27272727272727,102.43823331325324L152.72727272727272,102.09489806178217L178.1818181818182,100.4471561328919L203.63636363636365,101.08751504282723L229.0909090909091,95.55471026341762L254.54545454545453,85.45182545698265" style="fill: none;" fill="none"></path></g><g><path stroke="rgb(0, 119, 187)" stroke-width="2px" d="M25.454545454545457,65.7102095910481L50.909090909090914,83.61367598397187L76.36363636363636,88.97896707519998L101.81818181818183,93.57858898292517L127.27272727272727,94.0624998957838L152.72727272727272,101.02792748475336L178.1818181818182,104.31828169489145L203.63636363636365,105.13072717012027L229.0909090909091,104.79682990363625L254.54545454545453,97.24927892057946" style="fill: none;" fill="none"></path></g><g><path stroke="rgb(238, 51, 119)" stroke-width="2px" d="M25.454545454545457,85.30229498658862L50.909090909090914,91.2997978632668L76.36363636363636,94.64409994889998L101.81818181818183,98.78202041642635L127.27272727272727,99.87788848100062L152.72727272727272,101.42083943978089L178.1818181818182,103.47087068930469L203.63636363636365,103.89685396025044L229.0909090909091,103.76685628194642L254.54545454545453,106.09718402038624" style="fill: none;" fill="none"></path></g><g><path stroke="rgb(187, 187, 187)" stroke-width="2px" d="M25.454545454545457,77.03841122559139L50.909090909090914,85.34111552446095L76.36363636363636,90.12557470921107L101.81818181818183,94.68690925811417L127.27272727272727,98.36095611044382L152.72727272727272,100.40250470459888L178.1818181818182,101.99052407786834L203.63636363636365,101.96923237382192L229.0909090909091,104.04768109178006L254.54545454545453,102.19932525041722" style="fill: none;" fill="none"></path></g><g><path stroke="rgb(204, 51, 17)" stroke-width="2px" d="M25.454545454545457,78.599329829216L50.909090909090914,88.01452586431967L76.36363636363636,94.01665865289682L101.81818181818183,97.21539146325468L127.27272727272727,100.65683895828185L152.72727272727272,100.97896963342804L178.1818181818182,101.72454872221319L203.63636363636365,100.74438754803158L229.0909090909091,102.82837051232295L254.54545454545453,104.32947614917406" style="fill: none;" fill="none"></path></g><g><path stroke="rgb(0, 153, 136)" stroke-width="2px" d="M25.454545454545457,78.69943165779114L50.909090909090914,83.365670450866L76.36363636363636,91.32252698132756L101.81818181818183,95.01088326045212L127.27272727272727,97.32499547934418L152.72727272727272,98.95170872664889L178.1818181818182,100.96231593927709L203.63636363636365,102.39360384144886L229.0909090909091,100.00756588229615L254.54545454545453,102.95688742753525" style="fill: none;" fill="none"></path></g><g><path stroke="rgb(238, 51, 119)" stroke-width="2px" d="M25.454545454545457,68.87509156976428L50.909090909090914,87.16744106488899L76.36363636363636,94.41846059539168L101.81818181818183,101.78314394534809L127.27272727272727,102.45130044739138L152.72727272727272,104.64642505815645L178.1818181818182,101.94217880056252L203.63636363636365,97.34330533868749L229.0909090909091,90.54190791012182L254.54545454545453,79.77964933773151" style="fill: none;" fill="none"></path></g><g><path stroke="rgb(255, 112, 67)" stroke-width="2px" d="M25.454545454545457,86.18680441379547L50.909090909090914,92.64695938704403L76.36363636363636,97.75339006793001L101.81818181818183,99.01211398699186L127.27272727272727,103.66574977414486L152.72727272727272,103.57053049651122L178.1818181818182,102.57182192412785L203.63636363636365,100.40724273040402L229.0909090909091,95.52974661796108L254.54545454545453,89.2558161445556" style="fill: none;" fill="none"></path></g><g><path stroke="rgb(51, 187, 238)" stroke-width="2px" d="M25.454545454545457,83.74704495498112L50.909090909090914,91.35374567617116L76.36363636363636,96.84740243555098L101.81818181818183,97.10294441670626L127.27272727272727,101.859457164544L152.72727272727272,104.407654717156L178.1818181818182,103.68208666573199L203.63636363636365,105.48427086896196L229.0909090909091,105.66547304426092L254.54545454545453,106.07884240230135" style="fill: none;" fill="none"></path></g><g><path stroke="rgb(51, 187, 238)" stroke-width="2px" d="M25.454545454545457,84.16522339412144L50.909090909090914,87.07239084783822L76.36363636363636,92.27383887804575L101.81818181818183,94.82570716247567L127.27272727272727,91.06533860230208L152.72727272727272,86.99372895498907L178.1818181818182,72.06798524363586L203.63636363636365,55.206395559772886L229.0909090909091,34.58047237795219L254.54545454545453,16.31973878586132" style="fill: none;" fill="none"></path></g><g><path stroke="rgb(187, 187, 187)" stroke-width="2px" d="M25.454545454545457,83.92244482040405L50.909090909090914,87.00027205779388L76.36363636363636,87.70053824683337L101.81818181818183,91.14227373505167L127.27272727272727,93.62784849935967L152.72727272727272,94.83519222077516L178.1818181818182,91.56147133718237L203.63636363636365,92.76845773111897L229.0909090909091,88.17459736882742L254.54545454545453,86.57316864029924" style="fill: none;" fill="none"></path></g><g><path stroke="rgb(204, 51, 17)" stroke-width="2px" d="M25.454545454545457,76.82554422106061L50.909090909090914,81.97894512364302L76.36363636363636,86.70164871118975L101.81818181818183,88.70599471614308L127.27272727272727,91.00994919001306L152.72727272727272,90.98432686401624L178.1818181818182,91.99883606760457L203.63636363636365,92.85136183524905L229.0909090909091,93.447749210817L254.54545454545453,93.78756438842949" style="fill: none;" fill="none"></path></g><g><path stroke="rgb(238, 51, 119)" stroke-width="2px" d="M25.454545454545457,84.88692809854236L50.909090909090914,90.25971580564286L76.36363636363636,91.82386148633753L101.81818181818183,93.50583722745596L127.27272727272727,91.23076610482123L152.72727272727272,89.233120825383L178.1818181818182,80.35973634555616L203.63636363636365,72.48751340790052L229.0909090909091,56.16715810017578L254.54545454545453,42.79349509966312" style="fill: none;" fill="none"></path></g><g><path stroke="rgb(255, 112, 67)" stroke-width="2px" d="M25.454545454545457,82.86974249567304L50.909090909090914,86.61617876285649L76.36363636363636,89.9368347234941L101.81818181818183,91.90309487396725L127.27272727272727,94.39892860917352L152.72727272727272,94.90871727400638L178.1818181818182,94.003531023002L203.63636363636365,91.38805000829402L229.0909090909091,85.94851286235979L254.54545454545453,82.53446191752927" style="fill: none;" fill="none"></path></g><g><path stroke="rgb(51, 187, 238)" stroke-width="2px" d="M25.454545454545457,84.14523940426963L50.909090909090914,88.05937695774281L76.36363636363636,90.4559563143692L101.81818181818183,91.91314438348198L127.27272727272727,91.59874564088085L152.72727272727272,93.92795656945528L178.1818181818182,95.44217816024812L203.63636363636365,94.1837650265027L229.0909090909091,93.0669931419588L254.54545454545453,93.11550274386423" style="fill: none;" fill="none"></path></g><g><path stroke="rgb(204, 51, 17)" stroke-width="2px" d="M25.454545454545457,81.71580159664154L50.909090909090914,85.76164348843473L76.36363636363636,89.58828943883586L101.81818181818183,90.30775002320135L127.27272727272727,88.12106446777265L152.72727272727272,79.11686740644413L178.1818181818182,61.86761651339161L203.63636363636365,33.883963840023114L229.0909090909091,17.872899095828757L254.54545454545453,-2.563131414975487" style="fill: none;" fill="none"></path></g><g><path stroke="rgb(0, 153, 136)" stroke-width="2px" d="M25.454545454545457,81.88916289806366L50.909090909090914,88.01199512014264L76.36363636363636,90.1258630121772L101.81818181818183,91.31804774620302L127.27272727272727,94.04283289188193L152.72727272727272,89.44474117005562L178.1818181818182,86.46714442284303L203.63636363636365,85.2144512460835L229.0909090909091,75.32751014675021L254.54545454545453,56.082222198210175" style="fill: none;" fill="none"></path></g><g><path stroke="rgb(0, 119, 187)" stroke-width="2px" d="M25.454545454545457,77.83288281304496L50.909090909090914,83.70047067337822L76.36363636363636,87.92318633768375L101.81818181818183,91.1549699815005L127.27272727272727,93.2688219015924L152.72727272727272,94.18562066610384L178.1818181818182,91.30964558001195L203.63636363636365,89.14385930896935L229.0909090909091,92.4293413012105L254.54545454545453,91.95375559517252" style="fill: none;" fill="none"></path></g><g><path stroke="rgb(0, 119, 187)" stroke-width="2px" d="M25.454545454545457,79.63489002840859L50.909090909090914,84.38542323923583L76.36363636363636,84.73930133027048L101.81818181818183,77.84934662689439L127.27272727272727,68.53418582175108L152.72727272727272,49.45338110528937L178.1818181818182,15.44284486909774L203.63636363636365,5.129102437154273L229.0909090909091,-15.283622166626486" style="fill: none;" fill="none"></path></g><g><path stroke="rgb(238, 51, 119)" stroke-width="2px" d="M25.454545454545457,82.63622461046491L50.909090909090914,85.8652993371588L76.36363636363636,84.52515872819093L101.81818181818183,82.6215842790966L127.27272727272727,78.91972770840704L152.72727272727272,70.17887120482217L178.1818181818182,60.755280803557255L203.63636363636365,48.08105558341009L229.0909090909091,33.938366486524586L254.54545454545453,23.738737136202786" style="fill: none;" fill="none"></path></g><g><path stroke="rgb(255, 112, 67)" stroke-width="2px" d="M25.454545454545457,81.3215251309531L50.909090909090914,82.4635164997497L76.36363636363636,85.0593280788091L101.81818181818183,84.4430058114743L127.27272727272727,83.59928507470389L152.72727272727272,83.32044804074405L178.1818181818182,81.32213938142635L203.63636363636365,80.48328709872038L229.0909090909091,80.4792736506372L254.54545454545453,76.48604941733737" style="fill: none;" fill="none"></path></g><g><path stroke="rgb(204, 51, 17)" stroke-width="2px" d="M25.454545454545457,79.0145981992994L50.909090909090914,84.17629427339119L76.36363636363636,85.33536433557978L101.81818181818183,85.77624787297182L127.27272727272727,80.86811542694502L152.72727272727272,77.56278084811443L178.1818181818182,70.96725830068812L203.63636363636365,56.80446991283078L229.0909090909091,44.54488627071407L254.54545454545453,28.099938176802823" style="fill: none;" fill="none"></path></g><g><path stroke="rgb(0, 153, 136)" stroke-width="2px" d="M25.454545454545457,81.5448729310717L50.909090909090914,84.19122608277685L76.36363636363636,82.75899548688886L101.81818181818183,82.97700326472868L127.27272727272727,80.56102361972684L152.72727272727272,77.82935098634093L178.1818181818182,73.59882352143869L203.63636363636365,66.61140751858045L229.0909090909091,61.318398480543735L254.54545454545453,47.54264919532022" style="fill: none;" fill="none"></path></g><g><path stroke="rgb(0, 119, 187)" stroke-width="2px" d="M25.454545454545457,80.76618695259094L50.909090909090914,81.5886947404975L76.36363636363636,84.74554827250307L101.81818181818183,86.1770955623489L127.27272727272727,86.12311682457884L152.72727272727272,85.90562187178571L178.1818181818182,85.18031427756554L203.63636363636365,83.6627093282368L229.0909090909091,79.16414034068941L254.54545454545453,80.52347341836473" style="fill: none;" fill="none"></path></g><g><path stroke="rgb(255, 112, 67)" stroke-width="2px" d="M25.454545454545457,83.11656788417271L50.909090909090914,82.70053487906175L76.36363636363636,80.5277587892626L101.81818181818183,74.20508735182244L127.27272727272727,47.01949268680241L152.72727272727272,23.635481356827484L178.1818181818182,1.5751134965312303L203.63636363636365,-21.451092912649415" style="fill: none;" fill="none"></path></g><g><path stroke="rgb(51, 187, 238)" stroke-width="2px" d="M25.454545454545457,81.8757871900286L50.909090909090914,82.91411167263011L76.36363636363636,79.9096083423946L101.81818181818183,79.18678997227174L127.27272727272727,70.00385753632057L152.72727272727272,56.268934234545085L178.1818181818182,43.82125756356086L203.63636363636365,28.33705571999016L229.0909090909091,8.846616732674562L254.54545454545453,-3.573985959500419" style="fill: none;" fill="none"></path></g><g><path stroke="rgb(187, 187, 187)" stroke-width="2px" d="M25.454545454545457,82.85116049221584L50.909090909090914,82.90693954672747L76.36363636363636,82.40415686468744L101.81818181818183,78.58906301364429L127.27272727272727,81.33244218587228L152.72727272727272,81.7004759509573L178.1818181818182,78.40665524667311L203.63636363636365,69.73067258435657L229.0909090909091,70.33064753956893L254.54545454545453,70.05433314533622" style="fill: none;" fill="none"></path></g></g></g></g><g opacity="0.2"><g><g><g><path stroke="rgb(0, 153, 136)" stroke-width="2px" d="M25.454545454545457,81.5127409185682L50.909090909090914,91.37544617482594L76.36363636363636,97.50502163171768L101.81818181818183,101.72919527121952L127.27272727272727,103.8764586874417L152.72727272727272,101.9249466742788L178.1818181818182,99.62931520598275L203.63636363636365,101.4056357571057L229.0909090909091,92.80527905055455L254.54545454545453,80.4308772768293" style="fill: none;" fill="none"></path></g><g><path stroke="rgb(0, 119, 187)" stroke-width="2px" d="M25.454545454545457,65.7102095910481L50.909090909090914,89.55762682642256L76.36363636363636,91.35162756272724L101.81818181818183,95.78097243819917L127.27272727272727,94.30008452279228L152.72727272727272,104.47582302774703L178.1818181818182,105.95141749722617L203.63636363636365,105.53433791228703L229.0909090909091,104.63090545790536L254.54545454545453,93.49828471456254" style="fill: none;" fill="none"></path></g><g><path stroke="rgb(238, 51, 119)" stroke-width="2px" d="M25.454545454545457,85.30229498658862L50.909090909090914,93.29096881832396L76.36363636363636,96.12303059441703L101.81818181818183,100.76333274160113L127.27272727272727,100.41592430216926L152.72727272727272,102.18460213286536L178.1818181818182,104.48838406801224L203.63636363636365,104.10847606829235L229.0909090909091,103.70225619418281L254.54545454545453,107.25531410319465" style="fill: none;" fill="none"></path></g><g><path stroke="rgb(187, 187, 187)" stroke-width="2px" d="M25.454545454545457,77.03841122559139L50.909090909090914,88.09761335168567L76.36363636363636,92.24137738772801L101.81818181818183,96.87096002272197L127.27272727272727,100.1647944365229L152.72727272727272,101.41307386330196L178.1818181818182,102.77872228622437L203.63636363636365,101.95865497418812L229.0909090909091,105.08053007296154L254.54545454545453,101.2807263476508" style="fill: none;" fill="none"></path></g><g><path stroke="rgb(204, 51, 17)" stroke-width="2px" d="M25.454545454545457,78.599329829216L50.909090909090914,91.14037094797408L76.36363636363636,96.6709458231926L101.81818181818183,98.74700348717826L127.27272727272727,102.34647851330894L152.72727272727272,101.13842472859791L178.1818181818182,102.09460976294109L203.63636363636365,100.25745815890176L229.0909090909091,103.86396964107242L254.54545454545453,105.07549807855061" style="fill: none;" fill="none"></path></g><g><path stroke="rgb(0, 153, 136)" stroke-width="2px" d="M25.454545454545457,78.69943165779114L50.909090909090914,84.91486173016685L76.36363636363636,94.84123990365437L101.81818181818183,96.77693599462509L127.27272727272727,98.46114982877458L152.72727272727272,99.75693385941642L178.1818181818182,101.9602615748133L203.63636363636365,103.10464623144695L229.0909090909091,98.821865771498L254.54545454545453,104.42264606271472" style="fill: none;" fill="none"></path></g><g><path stroke="rgb(238, 51, 119)" stroke-width="2px" d="M25.454545454545457,68.87509156976428L50.909090909090914,93.24050109727042L76.36363636363636,97.6250354562487L101.81818181818183,105.30948960781097L127.27272727272727,102.7793437072209L152.72727272727272,105.7330145410129L178.1818181818182,100.59995206764766L203.63636363636365,95.05865389108658L229.0909090909091,87.16207161971501L254.54545454545453,74.43100450720105" style="fill: none;" fill="none"></path></g><g><path stroke="rgb(255, 112, 67)" stroke-width="2px" d="M25.454545454545457,86.18680441379547L50.909090909090914,94.79173083816255L76.36363636363636,100.01157626935414L101.81818181818183,99.61481411967958L127.27272727272727,105.95053462471282L152.72727272727272,103.52339683260237L178.1818181818182,102.07612248829433L203.63636363636365,99.33191221100944L229.0909090909091,93.10595966236932L254.54545454545453,86.13778793811798" style="fill: none;" fill="none"></path></g><g><path stroke="rgb(51, 187, 238)" stroke-width="2px" d="M25.454545454545457,83.74704495498112L50.909090909090914,93.87917031560625L76.36363636363636,99.27682930231094L101.81818181818183,97.22530261107853L127.27272727272727,104.1947512796947L152.72727272727272,105.66901575667518L178.1818181818182,103.32195791176387L203.63636363636365,106.37956898553031L229.0909090909091,105.7555183172226L254.54545454545453,106.28427938052586" style="fill: none;" fill="none"></path></g><g><path stroke="rgb(51, 187, 238)" stroke-width="2px" d="M25.454545454545457,84.16522339412144L50.909090909090914,88.03757044247219L76.36363636363636,94.57404403175627L101.81818181818183,96.04758856977736L127.27272727272727,89.21911910602024L152.72727272727272,84.97827698503222L178.1818181818182,64.65973528793879L203.63636363636365,46.82981038093567L229.0909090909091,24.330778190067832L254.54545454545453,7.244489601680215" style="fill: none;" fill="none"></path></g><g><path stroke="rgb(187, 187, 187)" stroke-width="2px" d="M25.454545454545457,83.92244482040405L50.909090909090914,88.0221107006073L76.36363636363636,88.0102127620152L101.81818181818183,92.79023990460804L127.27272727272727,94.84818542003632L152.72727272727272,95.43282890319824L178.1818181818182,89.9365913271904L203.63636363636365,93.36807049172265L229.0909090909091,85.89175827162606L254.54545454545453,85.7772879770824" style="fill: none;" fill="none"></path></g><g><path stroke="rgb(204, 51, 17)" stroke-width="2px" d="M25.454545454545457,76.82554422106061L50.909090909090914,83.6898742233004L76.36363636363636,88.79014158248901L101.81818181818183,89.66571239914214L127.27272727272727,92.14111641475132L152.72727272727272,90.971643779959L178.1818181818182,92.5023779954229L203.63636363636365,93.27488386631012L229.0909090909091,93.74411355597633L254.54545454545453,93.95644629001617" style="fill: none;" fill="none"></path></g><g><path stroke="rgb(238, 51, 119)" stroke-width="2px" d="M25.454545454545457,84.88692809854236L50.909090909090914,92.04348132440022L76.36363636363636,92.51556424583708L101.81818181818183,94.31119810683387L127.27272727272727,90.11377967255456L152.72727272727272,88.24428386347634L178.1818181818182,75.95551693439484L203.63636363636365,68.57671097346714L229.0909090909091,48.05704106603349L254.54545454545453,36.14703023433685" style="fill: none;" fill="none"></path></g><g><path stroke="rgb(255, 112, 67)" stroke-width="2px" d="M25.454545454545457,82.86974249567304L50.909090909090914,87.8599956035614L76.36363636363636,91.40530848503113L101.81818181818183,92.84457635028022L127.27272727272727,95.62430235317775L152.72727272727272,95.16106331348419L178.1818181818182,93.5542504957744L203.63636363636365,90.08871821846282L229.0909090909091,83.24542937959943L254.54545454545453,80.83774130684989" style="fill: none;" fill="none"></path></g><g><path stroke="rgb(51, 187, 238)" stroke-width="2px" d="M25.454545454545457,84.14523940426963L50.909090909090914,89.35887062549591L76.36363636363636,91.51578122377396L101.81818181818183,92.61087279660362L127.27272727272727,91.44438601391656L152.72727272727272,95.08091895069396L178.1818181818182,96.19374754599163L203.63636363636365,93.55860423190254L229.0909090909091,92.51203275578362L254.54545454545453,93.13961112499237" style="fill: none;" fill="none"></path></g><g><path stroke="rgb(204, 51, 17)" stroke-width="2px" d="M25.454545454545457,81.71580159664154L50.909090909090914,87.1048629965101L76.36363636363636,91.28052411760603L101.81818181818183,90.65224096604756L127.27272727272727,87.04747249398913L152.72727272727272,74.65977837358203L178.1818181818182,53.30611601897648L203.63636363636365,19.982104369572227L229.0909090909091,9.916478633880615L254.54545454545453,-12.719463212149492" style="fill: none;" fill="none"></path></g><g><path stroke="rgb(0, 153, 136)" stroke-width="2px" d="M25.454545454545457,81.88916289806366L50.909090909090914,90.04477541787284L76.36363636363636,91.0606661268643L101.81818181818183,91.88888769490379L127.27272727272727,95.38061438288008L152.72727272727272,87.16867990153176L178.1818181818182,84.98924279212952L203.63636363636365,84.59213204043252L229.0909090909091,70.41436653477805L254.54545454545453,46.51766758305686" style="fill: none;" fill="none"></path></g><g><path stroke="rgb(0, 119, 187)" stroke-width="2px" d="M25.454545454545457,77.83288281304496L50.909090909090914,85.64850984300885L76.36363636363636,89.79057254961559L101.81818181818183,92.70240735156196L127.27272727272727,94.30665491308486L152.72727272727272,94.63943722418377L178.1818181818182,89.88218288762229L203.63636363636365,88.0679291316441L229.0909090909091,94.06200449807304L254.54545454545453,91.71739823477608" style="fill: none;" fill="none"></path></g><g><path stroke="rgb(0, 119, 187)" stroke-width="2px" d="M25.454545454545457,79.63489002840859L50.909090909090914,85.96260026523045L76.36363636363636,84.89579471520015L101.81818181818183,74.55030976022992L127.27272727272727,63.960742763110574L152.72727272727272,40.00835842745644L178.1818181818182,-1.4379590920039504L203.63636363636365,0.005389690399169922L229.0909090909091,-25.42737102508545" style="fill: none;" fill="none"></path></g><g><path stroke="rgb(238, 51, 119)" stroke-width="2px" d="M25.454545454545457,82.63622461046491L50.909090909090914,86.93735214642116L76.36363636363636,83.93251638753074L101.81818181818183,81.71011786801475L127.27272727272727,77.10223570891789L152.72727272727272,65.85213608401162L178.1818181818182,56.07797195230212L203.63636363636365,41.784690346036626L229.0909090909091,26.91040284293038L254.54545454545453,18.669708694730474" style="fill: none;" fill="none"></path></g><g><path stroke="rgb(255, 112, 67)" stroke-width="2px" d="M25.454545454545457,81.3215251309531L50.909090909090914,82.84265763419015L76.36363636363636,86.2072582585471L101.81818181818183,84.14789938926697L127.27272727272727,83.18504544666835L152.72727272727272,83.18242335319519L178.1818181818182,80.33029801504952L203.63636363636365,80.06655785015651L229.0909090909091,80.47727923733848L254.54545454545453,74.50149032047817" style="fill: none;" fill="none"></path></g><g><path stroke="rgb(204, 51, 17)" stroke-width="2px" d="M25.454545454545457,79.0145981992994L50.909090909090914,85.88997736998967L76.36363636363636,85.84793293476105L101.81818181818183,85.98735100882394L127.27272727272727,78.4583809375763L152.72727272727272,75.92663601466587L178.1818181818182,67.69363384587425L203.63636363636365,49.768608791487566L229.0909090909091,38.452699167387834L254.54545454545453,19.927101033074507" style="fill: none;" fill="none"></path></g><g><path stroke="rgb(0, 153, 136)" stroke-width="2px" d="M25.454545454545457,81.5448729310717L50.909090909090914,85.06981532914298L76.36363636363636,82.12562874385289L101.81818181818183,83.08138939312526L127.27272727272727,79.37485565458026L152.72727272727272,76.47716954776219L178.1818181818182,71.499041727611L203.63636363636365,63.14016391549792L229.0909090909091,58.68812959534782L254.54545454545453,40.69635483196802" style="fill: none;" fill="none"></path></g><g><path stroke="rgb(0, 119, 187)" stroke-width="2px" d="M25.454545454545457,80.76618695259094L50.909090909090914,81.8617673260825L76.36363636363636,86.14158466884068L101.81818181818183,86.86254669938769L127.27272727272727,86.09661500794547L152.72727272727272,85.79796159267426L178.1818181818182,84.8203147990363L203.63636363636365,82.90878592218671L229.0909090909091,76.92865463665554L254.54545454545453,81.19903698989323" style="fill: none;" fill="none"></path></g><g><path stroke="rgb(255, 112, 67)" stroke-width="2px" d="M25.454545454545457,83.11656788417271L50.909090909090914,82.56241192136493L76.36363636363636,79.56690505572728L101.81818181818183,71.17767613274711L127.27272727272727,33.67224385057176L152.72727272727272,12.060365915298462L178.1818181818182,-9.374338831220342" style="fill: none;" fill="none"></path></g><g><path stroke="rgb(51, 187, 238)" stroke-width="2px" d="M25.454545454545457,81.8757871900286L50.909090909090914,83.25883540085384L76.36363636363636,78.58094486168453L101.81818181818183,78.84069125992912L127.27272727272727,65.49533433573586L152.72727272727272,49.47012967722756L178.1818181818182,37.642972452299944L203.63636363636365,20.644736187798628L229.0909090909091,-0.8388183116912842" style="fill: none;" fill="none"></path></g><g><path stroke="rgb(187, 187, 187)" stroke-width="2px" d="M25.454545454545457,82.85116049221584L50.909090909090914,82.92545819282532L76.36363636363636,82.18181429590497L101.81818181818183,76.76232600212097L127.27272727272727,82.67935274328504L152.72727272727272,81.88265313420978L178.1818181818182,76.77179888316563L203.63636363636365,65.42057435853141L229.0909090909091,70.62879467010498L254.54545454545453,69.91700996671405" style="fill: none;" fill="none"></path></g></g></g></g></g></g><g transform="translate(50, 178)" clip-path="url(#clip_1)"><clipPath id="clip_1"><rect width="280" height="22"></rect></clipPath><g><g><line x1="0" y1="0" x2="0" y2="5" style="visibility: inherit;" fill="rgb(0, 0, 0)" stroke="rgb(204, 204, 204)" stroke-width="1px"></line><line x1="25.454545454545457" y1="0" x2="25.454545454545457" y2="5" style="visibility: inherit;" fill="rgb(0, 0, 0)" stroke="rgb(204, 204, 204)" stroke-width="1px"></line><line x1="50.909090909090914" y1="0" x2="50.909090909090914" y2="5" style="visibility: inherit;" fill="rgb(0, 0, 0)" stroke="rgb(204, 204, 204)" stroke-width="1px"></line><line x1="76.36363636363636" y1="0" x2="76.36363636363636" y2="5" style="visibility: inherit;" fill="rgb(0, 0, 0)" stroke="rgb(204, 204, 204)" stroke-width="1px"></line><line x1="101.81818181818183" y1="0" x2="101.81818181818183" y2="5" style="visibility: inherit;" fill="rgb(0, 0, 0)" stroke="rgb(204, 204, 204)" stroke-width="1px"></line><line x1="127.27272727272727" y1="0" x2="127.27272727272727" y2="5" style="visibility: inherit;" fill="rgb(0, 0, 0)" stroke="rgb(204, 204, 204)" stroke-width="1px"></line><line x1="152.72727272727272" y1="0" x2="152.72727272727272" y2="5" style="visibility: inherit;" fill="rgb(0, 0, 0)" stroke="rgb(204, 204, 204)" stroke-width="1px"></line><line x1="178.1818181818182" y1="0" x2="178.1818181818182" y2="5" style="visibility: inherit;" fill="rgb(0, 0, 0)" stroke="rgb(204, 204, 204)" stroke-width="1px"></line><line x1="203.63636363636365" y1="0" x2="203.63636363636365" y2="5" style="visibility: inherit;" fill="rgb(0, 0, 0)" stroke="rgb(204, 204, 204)" stroke-width="1px"></line><line x1="229.0909090909091" y1="0" x2="229.0909090909091" y2="5" style="visibility: inherit;" fill="rgb(0, 0, 0)" stroke="rgb(204, 204, 204)" stroke-width="1px"></line><line x1="254.54545454545453" y1="0" x2="254.54545454545453" y2="5" style="visibility: inherit;" fill="rgb(0, 0, 0)" stroke="rgb(204, 204, 204)" stroke-width="1px"></line><line x1="280" y1="0" x2="280" y2="5" style="visibility: inherit;" fill="rgb(0, 0, 0)" stroke="rgb(204, 204, 204)" stroke-width="1px"></line></g><g transform="translate(0, 8)"><text x="0" y="0" dx="0em" dy="0.95em" style="text-anchor: middle; visibility: hidden; font-family: &quot;Helvetica Neue&quot;, sans-serif; font-size: 12px; font-weight: 200;" fill="rgb(50, 49, 63)" stroke="none" stroke-width="1px">-1</text><text x="25.454545454545457" y="0" dx="0em" dy="0.95em" style="text-anchor: middle; visibility: inherit; font-family: &quot;Helvetica Neue&quot;, sans-serif; font-size: 12px; font-weight: 200;" fill="rgb(50, 49, 63)" stroke="none" stroke-width="1px">0</text><text x="50.909090909090914" y="0" dx="0em" dy="0.95em" style="text-anchor: middle; visibility: inherit; font-family: &quot;Helvetica Neue&quot;, sans-serif; font-size: 12px; font-weight: 200;" fill="rgb(50, 49, 63)" stroke="none" stroke-width="1px">1</text><text x="76.36363636363636" y="0" dx="0em" dy="0.95em" style="text-anchor: middle; visibility: inherit; font-family: &quot;Helvetica Neue&quot;, sans-serif; font-size: 12px; font-weight: 200;" fill="rgb(50, 49, 63)" stroke="none" stroke-width="1px">2</text><text x="101.81818181818183" y="0" dx="0em" dy="0.95em" style="text-anchor: middle; visibility: inherit; font-family: &quot;Helvetica Neue&quot;, sans-serif; font-size: 12px; font-weight: 200;" fill="rgb(50, 49, 63)" stroke="none" stroke-width="1px">3</text><text x="127.27272727272727" y="0" dx="0em" dy="0.95em" style="text-anchor: middle; visibility: inherit; font-family: &quot;Helvetica Neue&quot;, sans-serif; font-size: 12px; font-weight: 200;" fill="rgb(50, 49, 63)" stroke="none" stroke-width="1px">4</text><text x="152.72727272727272" y="0" dx="0em" dy="0.95em" style="text-anchor: middle; visibility: inherit; font-family: &quot;Helvetica Neue&quot;, sans-serif; font-size: 12px; font-weight: 200;" fill="rgb(50, 49, 63)" stroke="none" stroke-width="1px">5</text><text x="178.1818181818182" y="0" dx="0em" dy="0.95em" style="text-anchor: middle; visibility: inherit; font-family: &quot;Helvetica Neue&quot;, sans-serif; font-size: 12px; font-weight: 200;" fill="rgb(50, 49, 63)" stroke="none" stroke-width="1px">6</text><text x="203.63636363636365" y="0" dx="0em" dy="0.95em" style="text-anchor: middle; visibility: inherit; font-family: &quot;Helvetica Neue&quot;, sans-serif; font-size: 12px; font-weight: 200;" fill="rgb(50, 49, 63)" stroke="none" stroke-width="1px">7</text><text x="229.0909090909091" y="0" dx="0em" dy="0.95em" style="text-anchor: middle; visibility: inherit; font-family: &quot;Helvetica Neue&quot;, sans-serif; font-size: 12px; font-weight: 200;" fill="rgb(50, 49, 63)" stroke="none" stroke-width="1px">8</text><text x="254.54545454545453" y="0" dx="0em" dy="0.95em" style="text-anchor: middle; visibility: inherit; font-family: &quot;Helvetica Neue&quot;, sans-serif; font-size: 12px; font-weight: 200;" fill="rgb(50, 49, 63)" stroke="none" stroke-width="1px">9</text><text x="280" y="0" dx="0em" dy="0.95em" style="text-anchor: middle; visibility: hidden; font-family: &quot;Helvetica Neue&quot;, sans-serif; font-size: 12px; font-weight: 200;" fill="rgb(50, 49, 63)" stroke="none" stroke-width="1px">10</text></g><line x1="0" y1="0" x2="280" y2="0" fill="rgb(0, 0, 0)" stroke="rgb(204, 204, 204)" stroke-width="1px"></line></g></g></g></g></svg>