<svg viewBox="0 0 330 200" xmlns="http://www.w3.org/2000/svg"><g><g><g><g><g><line x1="40" y1="165.77607755819653" x2="35" y2="165.77607755819653" style="visibility: inherit;" fill="rgb(0, 0, 0)" stroke="rgb(204, 204, 204)" stroke-width="1px"></line><line x1="40" y1="153.05042767018043" x2="35" y2="153.05042767018043" style="visibility: inherit;" fill="rgb(0, 0, 0)" stroke="rgb(204, 204, 204)" stroke-width="1px"></line><line x1="40" y1="140.32477778216435" x2="35" y2="140.32477778216435" style="visibility: inherit;" fill="rgb(0, 0, 0)" stroke="rgb(204, 204, 204)" stroke-width="1px"></line><line x1="40" y1="127.59912789414827" x2="35" y2="127.59912789414827" style="visibility: inherit;" fill="rgb(0, 0, 0)" stroke="rgb(204, 204, 204)" stroke-width="1px"></line><line x1="40" y1="114.87347800613216" x2="35" y2="114.87347800613216" style="visibility: inherit;" fill="rgb(0, 0, 0)" stroke="rgb(204, 204, 204)" stroke-width="1px"></line><line x1="40" y1="102.14782811811607" x2="35" y2="102.14782811811607" style="visibility: inherit;" fill="rgb(0, 0, 0)" stroke="rgb(204, 204, 204)" stroke-width="1px"></line><line x1="40" y1="89.42217823009997" x2="35" y2="89.42217823009997" style="visibility: inherit;" fill="rgb(0, 0, 0)" stroke="rgb(204, 204, 204)" stroke-width="1px"></line><line x1="40" y1="76.69652834208388" x2="35" y2="76.69652834208388" style="visibility: inherit;" fill="rgb(0, 0, 0)" stroke="rgb(204, 204, 204)" stroke-width="1px"></line><line x1="40" y1="63.97087845406779" x2="35" y2="63.97087845406779" style="visibility: inherit;" fill="rgb(0, 0, 0)" stroke="rgb(204, 204, 204)" stroke-width="1px"></line><line x1="40" y1="51.24522856605172" x2="35" y2="51.24522856605172" style="visibility: inherit;" fill="rgb(0, 0, 0)" stroke="rgb(204, 204, 204)" stroke-width="1px"></line><line x1="40" y1="38.5195786780356" x2="35" y2="38.5195786780356" style="visibility: inherit;" fill="rgb(0, 0, 0)" stroke="rgb(204, 204, 204)" stroke-width="1px"></line><line x1="40" y1="25.79392879001952" x2="35" y2="25.79392879001952" style="visibility: inherit;" fill="rgb(0, 0, 0)" stroke="rgb(204, 204, 204)" stroke-width="1px"></line><line x1="40" y1="13.068278902003414" x2="35" y2="13.068278902003414" style="visibility: inherit;" fill="rgb(0, 0, 0)" stroke="rgb(204, 204, 204)" stroke-width="1px"></line><line x1="40" y1="0.34262901398730605" x2="35" y2="0.34262901398730605" style="visibility: inherit;" fill="rgb(0, 0, 0)" stroke="rgb(204, 204, 204)" stroke-width="1px"></line></g><g transform="translate(30, 0)"><text x="0" y="165.77607755819653" dx="0em" dy="0.3em" style="text-anchor: end; visibility: inherit; font-family: &quot;Helvetica Neue&quot;, sans-serif; font-size: 12px; font-weight: 200;" fill="rgb(50, 49, 63)" stroke="none" stroke-width="1px">0.3</text><text x="0" y="153.05042767018043" dx="0em" dy="0.3em" style="text-anchor: end; visibility: hidden; font-family: &quot;Helvetica Neue&quot;, sans-serif; font-size: 12px; font-weight: 200;" fill="rgb(50, 49, 63)" stroke="none" stroke-width="1px">0.4</text><text x="0" y="140.32477778216435" dx="0em" dy="0.3em" style="text-anchor: end; visibility: inherit; font-family: &quot;Helvetica Neue&quot;, sans-serif; font-size: 12px; font-weight: 200;" fill="rgb(50, 49, 63)" stroke="none" stroke-width="1px">0.5</text><text x="0" y="127.59912789414827" dx="0em" dy="0.3em" style="text-anchor: end; visibility: hidden; font-family: &quot;Helvetica Neue&quot;, sans-serif; font-size: 12px; font-weight: 200;" fill="rgb(50, 49, 63)" stroke="none" stroke-width="1px">0.6</text><text x="0" y="114.87347800613216" dx="0em" dy="0.3em" style="text-anchor: end; visibility: inherit; font-family: &quot;Helvetica Neue&quot;, sans-serif; font-size: 12px; font-weight: 200;" fill="rgb(50, 49, 63)" stroke="none" stroke-width="1px">0.7</text><text x="0" y="102.14782811811607" dx="0em" dy="0.3em" style="text-anchor: end; visibility: hidden; font-family: &quot;Helvetica Neue&quot;, sans-serif; font-size: 12px; font-weight: 200;" fill="rgb(50, 49, 63)" stroke="none" stroke-width="1px">0.8</text><text x="0" y="89.42217823009997" dx="0em" dy="0.3em" style="text-anchor: end; visibility: inherit; font-family: &quot;Helvetica Neue&quot;, sans-serif; font-size: 12px; font-weight: 200;" fill="rgb(50, 49, 63)" stroke="none" stroke-width="1px">0.9</text><text x="0" y="76.69652834208388" dx="0em" dy="0.3em" style="text-anchor: end; visibility: hidden; font-family: &quot;Helvetica Neue&quot;, sans-serif; font-size: 12px; font-weight: 200;" fill="rgb(50, 49, 63)" stroke="none" stroke-width="1px">1</text><text x="0" y="63.97087845406779" dx="0em" dy="0.3em" style="text-anchor: end; visibility: inherit; font-family: &quot;Helvetica Neue&quot;, sans-serif; font-size: 12px; font-weight: 200;" fill="rgb(50, 49, 63)" stroke="none" stroke-width="1px">1.1</text><text x="0" y="51.24522856605172" dx="0em" dy="0.3em" style="text-anchor: end; visibility: hidden; font-family: &quot;Helvetica Neue&quot;, sans-serif; font-size: 12px; font-weight: 200;" fill="rgb(50, 49, 63)" stroke="none" stroke-width="1px">1.2</text><text x="0" y="38.5195786780356" dx="0em" dy="0.3em" style="text-anchor: end; visibility: inherit; font-family: &quot;Helvetica Neue&quot;, sans-serif; font-size: 12px; font-weight: 200;" fill="rgb(50, 49, 63)" stroke="none" stroke-width="1px">1.3</text><text x="0" y="25.79392879001952" dx="0em" dy="0.3em" style="text-anchor: end; visibility: hidden; font-family: &quot;Helvetica Neue&quot;, sans-serif; font-size: 12px; font-weight: 200;" fill="rgb(50, 49, 63)" stroke="none" stroke-width="1px">1.4</text><text x="0" y="13.068278902003414" dx="0em" dy="0.3em" style="text-anchor: end; visibility: inherit; font-family: &quot;Helvetica Neue&quot;, sans-serif; font-size: 12px; font-weight: 200;" fill="rgb(50, 49, 63)" stroke="none" stroke-width="1px">1.5</text><text x="0" y="0.34262901398730605" dx="0em" dy="0.3em" style="text-anchor: end; visibility: hidden; font-family: &quot;Helvetica Neue&quot;, sans-serif; font-size: 12px; font-weight: 200;" fill="rgb(50, 49, 63)" stroke="none" stroke-width="1px">1.6</text></g><line x1="40" y1="0" x2="40" y2="178" fill="rgb(0, 0, 0)" stroke="rgb(204, 204, 204)" stroke-width="1px"></line></g></g><g transform="translate(40, 0)" clip-path="url(#clip_0)"><clipPath id="clip_0"><rect width="290" height="178"></rect></clipPath><g><g><g><line x1="15.637343539865673" y1="0" x2="15.637343539865673" y2="178" fill="rgb(0, 0, 0)" stroke="rgb(60, 60, 60)" stroke-width="1px" opacity="0.25"></line><line x1="40.003672282227015" y1="0" x2="40.003672282227015" y2="178" fill="rgb(0, 0, 0)" stroke="rgb(60, 60, 60)" stroke-width="1px" opacity="0.25"></line><line x1="64.37000102458835" y1="0" x2="64.37000102458835" y2="178" fill="rgb(0, 0, 0)" stroke="rgb(60, 60, 60)" stroke-width="1px" opacity="0.25"></line><line x1="88.73632976694968" y1="0" x2="88.73632976694968" y2="178" fill="rgb(0, 0, 0)" stroke="rgb(60, 60, 60)" stroke-width="1px" opacity="0.25"></line><line x1="113.10265850931104" y1="0" x2="113.10265850931104" y2="178" fill="rgb(0, 0, 0)" stroke="rgb(60, 60, 60)" stroke-width="1px" opacity="0.25"></line><line x1="137.46898725167236" y1="0" x2="137.46898725167236" y2="178" fill="rgb(0, 0, 0)" stroke="rgb(60, 60, 60)" stroke-width="1px" opacity="0.25"></line><line x1="161.8353159940337" y1="0" x2="161.8353159940337" y2="178" fill="rgb(0, 0, 0)" stroke="rgb(60, 60, 60)" stroke-width="1px" opacity="0.25"></line><line x1="186.20164473639505" y1="0" x2="186.20164473639505" y2="178" fill="rgb(0, 0, 0)" stroke="rgb(60, 60, 60)" stroke-width="1px" opacity="0.25"></line><line x1="210.56797347875641" y1="0" x2="210.56797347875641" y2="178" fill="rgb(0, 0, 0)" stroke="rgb(60, 60, 60)" stroke-width="1px" opacity="0.25"></line><line x1="234.93430222111772" y1="0" x2="234.93430222111772" y2="178" fill="rgb(0, 0, 0)" stroke="rgb(60, 60, 60)" stroke-width="1px" opacity="0.25"></line><line x1="259.3006309634791" y1="0" x2="259.3006309634791" y2="178" fill="rgb(0, 0, 0)" stroke="rgb(60, 60, 60)" stroke-width="1px" opacity="0.25"></line><line x1="283.66695970584044" y1="0" x2="283.66695970584044" y2="178" fill="rgb(0, 0, 0)" stroke="rgb(60, 60, 60)" stroke-width="1px" opacity="0.25"></line></g><g><line x1="0" y1="165.77607755819653" x2="290" y2="165.77607755819653" fill="rgb(0, 0, 0)" stroke="rgb(60, 60, 60)" stroke-width="1px" opacity="0.25"></line><line x1="0" y1="153.05042767018043" x2="290" y2="153.05042767018043" fill="rgb(0, 0, 0)" stroke="rgb(60, 60, 60)" stroke-width="1px" opacity="0.25"></line><line x1="0" y1="140.32477778216435" x2="290" y2="140.32477778216435" fill="rgb(0, 0, 0)" stroke="rgb(60, 60, 60)" stroke-width="1px" opacity="0.25"></line><line x1="0" y1="127.59912789414827" x2="290" y2="127.59912789414827" fill="rgb(0, 0, 0)" stroke="rgb(60, 60, 60)" stroke-width="1px" opacity="0.25"></line><line x1="0" y1="114.87347800613216" x2="290" y2="114.87347800613216" fill="rgb(0, 0, 0)" stroke="rgb(60, 60, 60)" stroke-width="1px" opacity="0.25"></line><line x1="0" y1="102.14782811811607" x2="290" y2="102.14782811811607" fill="rgb(0, 0, 0)" stroke="rgb(60, 60, 60)" stroke-width="1px" opacity="0.25"></line><line x1="0" y1="89.42217823009997" x2="290" y2="89.42217823009997" fill="rgb(0, 0, 0)" stroke="rgb(60, 60, 60)" stroke-width="1px" opacity="0.25"></line><line x1="0" y1="76.69652834208388" x2="290" y2="76.69652834208388" fill="rgb(0, 0, 0)" stroke="rgb(60, 60, 60)" stroke-width="1px" opacity="0.25"></line><line x1="0" y1="63.97087845406779" x2="290" y2="63.97087845406779" fill="rgb(0, 0, 0)" stroke="rgb(60, 60, 60)" stroke-width="1px" opacity="0.25"></line><line x1="0" y1="51.24522856605172" x2="290" y2="51.24522856605172" fill="rgb(0, 0, 0)" stroke="rgb(60, 60, 60)" stroke-width="1px" opacity="0.25"></line><line x1="0" y1="38.5195786780356" x2="290" y2="38.5195786780356" fill="rgb(0, 0, 0)" stroke="rgb(60, 60, 60)" stroke-width="1px" opacity="0.25"></line><line x1="0" y1="25.79392879001952" x2="290" y2="25.79392879001952" fill="rgb(0, 0, 0)" stroke="rgb(60, 60, 60)" stroke-width="1px" opacity="0.25"></line><line x1="0" y1="13.068278902003414" x2="290" y2="13.068278902003414" fill="rgb(0, 0, 0)" stroke="rgb(60, 60, 60)" stroke-width="1px" opacity="0.25"></line><line x1="0" y1="0.34262901398730605" x2="290" y2="0.34262901398730605" fill="rgb(0, 0, 0)" stroke="rgb(60, 60, 60)" stroke-width="1px" opacity="0.25"></line></g></g></g><g><g><line x1="0" y1="203.9530272222448" x2="290" y2="203.9530272222448" fill="rgb(0, 0, 0)" stroke="rgb(153, 153, 153)" stroke-width="1.5px"></line></g></g><g><g><line x1="15.637343539865673" y1="0" x2="15.637343539865673" y2="178" fill="rgb(0, 0, 0)" stroke="rgb(153, 153, 153)" stroke-width="1.5px"></line></g></g><g><g><g><g><g><path stroke="rgb(0, 153, 136)" stroke-width="2px" d="M15.637343539865673,132.83082650308356L40.003672282227015,138.96601646878787L64.37000102458835,143.95186401746903L88.73632976694968,148.08356377737272L113.10265850931104,151.12669470162297L137.46898725167236,152.00618410747367L161.8353159940337,151.58545992343795L186.20164473639505,152.04618966420344L210.56797347875641,148.91624608160316L234.93430222111772,142.15602141304572" style="fill: none;" fill="none"></path></g><g><path stroke="rgb(0, 119, 187)" stroke-width="2px" d="M15.637343539865673,117.01417069264548L40.003672282227015,131.84868425955992L64.37000102458835,137.3186205824479L88.73632976694968,141.7584716622943L113.10265850931104,143.4104699184776L137.46898725167236,148.5211441589842L161.8353159940337,152.06024817925123L186.20164473639505,153.97868200882388L210.56797347875641,154.76622685501647L234.93430222111772,150.85255808248627" style="fill: none;" fill="none"></path></g><g><path stroke="rgb(238, 51, 119)" stroke-width="2px" d="M15.637343539865673,136.6237677177953L40.003672282227015,141.59319854415503L64.37000102458835,144.5534655897478L88.73632976694968,147.97414680367834L113.10265850931104,149.58587324459484L137.46898725167236,151.20728979322848L161.8353159940337,153.0715175126505L186.20164473639505,154.0181474837012L210.56797347875641,154.4224185598202L234.93430222111772,156.06598215748687" style="fill: none;" fill="none"></path></g><g><path stroke="rgb(187, 187, 187)" stroke-width="2px" d="M15.637343539865673,128.35249760314375L40.003672282227015,135.2319798699041L64.37000102458835,139.44287561571116L88.73632976694968,143.41427181039603L113.10265850931104,146.86465323109678L137.46898725167236,149.28909658331355L161.8353159940337,151.2368578651224L186.20164473639505,152.0571173664889L210.56797347875641,153.78276384524935L234.93430222111772,153.32352452653953" style="fill: none;" fill="none"></path></g><g><path stroke="rgb(204, 51, 17)" stroke-width="2px" d="M15.637343539865673,129.9148113736373L40.003672282227015,137.7160857331718L64.37000102458835,142.9115971053912L88.73632976694968,146.1616953386191L113.10265850931104,149.37148043007642L137.46898725167236,150.64980027084388L161.8353159940337,151.77215514643882L186.20164473639505,151.700474749742L210.56797347875641,153.08554381510064L234.93430222111772,154.3964209937328" style="fill: none;" fill="none"></path></g><g><path stroke="rgb(0, 153, 136)" stroke-width="2px" d="M15.637343539865673,130.01500267436967L40.003672282227015,133.88137029073755L64.37000102458835,140.0887475836135L88.73632976694968,143.7246656576068L113.10265850931104,146.31490924657973L137.46898725167236,148.28288600945206L161.8353159940337,150.30611616028798L186.20164473639505,151.95444647171033L210.56797347875641,151.24282829014405L234.93430222111772,153.02200012787105" style="fill: none;" fill="none"></path></g><g><path stroke="rgb(238, 51, 119)" stroke-width="2px" d="M15.637343539865673,120.18188147900767L40.003672282227015,135.33861709660965L64.37000102458835,142.21726550879512L88.73632976694968,148.75998143591656L113.10265850931104,151.04584138888424L137.46898725167236,153.52904437352896L161.8353159940337,152.8858275315213L186.20164473639505,150.29651642346806L210.56797347875641,145.6244594161422L234.93430222111772,137.7957785160554" style="fill: none;" fill="none"></path></g><g><path stroke="rgb(255, 112, 67)" stroke-width="2px" d="M15.637343539865673,137.50906772962662L40.003672282227015,142.86184436470901L64.37000102458835,147.14712815671376L88.73632976694968,148.87078480245114L113.10265850931104,152.46387032496781L137.46898725167236,153.45159858025056L161.8353159940337,153.43585629790394L186.20164473639505,152.33192588103253L210.56797347875641,149.2079999789588L234.93430222111772,144.58207316549408" style="fill: none;" fill="none"></path></g><g><path stroke="rgb(51, 187, 238)" stroke-width="2px" d="M15.637343539865673,135.06712758595327L40.003672282227015,141.36991289978226L64.37000102458835,146.03730439051023L88.73632976694968,147.17983219071465L113.10265850931104,150.7445815780654L137.46898725167236,153.32551715318547L161.8353159940337,153.86384387744909L186.20164473639505,155.40063149783634L210.56797347875641,156.0709600999131L234.93430222111772,156.68268928166097" style="fill: none;" fill="none"></path></g><g><path stroke="rgb(51, 187, 238)" stroke-width="2px" d="M15.637343539865673,135.48567979775683L40.003672282227015,137.89451024918824L64.37000102458835,141.93985121105754L88.73632976694968,144.4055977593381L113.10265850931104,142.7577060613071L137.46898725167236,140.09678307307422L161.8353159940337,130.35780302691137L186.20164473639505,117.50848972505798L210.56797347875641,100.93036666596419L234.93430222111772,84.22135196213867" style="fill: none;" fill="none"></path></g><g><path stroke="rgb(187, 187, 187)" stroke-width="2px" d="M15.637343539865673,135.24268422577845L40.003672282227015,137.79292052681814L64.37000102458835,138.5713437422678L88.73632976694968,141.08616542121095L113.10265850931104,143.25917972716772L137.46898725167236,144.7029687038708L161.8353159940337,143.31449263820662L186.20164473639505,143.8653794374406L210.56797347875641,141.23427791553743L234.93430222111772,139.60603071324573" style="fill: none;" fill="none"></path></g><g><path stroke="rgb(204, 51, 17)" stroke-width="2px" d="M15.637343539865673,128.13944033565403L40.003672282227015,132.40946234856006L64.37000102458835,136.30124647207242L88.73632976694968,138.42743664974114L113.10265850931104,140.57878926590655L137.46898725167236,141.2872132836295L161.8353159940337,142.31343813348585L186.20164473639505,143.226114027559L210.56797347875641,143.95671646953934L234.93430222111772,144.48000320672477" style="fill: none;" fill="none"></path></g><g><path stroke="rgb(238, 51, 119)" stroke-width="2px" d="M15.637343539865673,136.20802957008226L40.003672282227015,140.6598318291484L64.37000102458835,142.267833749624L88.73632976694968,143.7969703822327L113.10265850931104,142.7909458988595L137.46898725167236,141.46318859436533L161.8353159940337,135.73515662503183L186.20164473639505,129.41752054045568L210.56797347875641,117.52218561175201L234.93430222111772,105.67085198671994" style="fill: none;" fill="none"></path></g><g><path stroke="rgb(255, 112, 67)" stroke-width="2px" d="M15.637343539865673,134.18904098369092L40.003672282227015,137.2932755723111L64.37000102458835,140.04039046814054L88.73632976694968,141.91385963730374L113.10265850931104,144.0651594485513L137.46898725167236,145.06479630553108L161.8353159940337,144.9914746288978L186.20164473639505,143.5658923859456L210.56797347875641,140.0055433908217L234.93430222111772,136.91437655144904" style="fill: none;" fill="none"></path></g><g><path stroke="rgb(51, 187, 238)" stroke-width="2px" d="M15.637343539865673,135.46567794598673L40.003672282227015,138.70886702264042L64.37000102458835,140.79684130860932L88.73632976694968,142.22131834788047L113.10265850931104,142.4560429716085L137.46898725167236,144.08561657336102L161.8353159940337,145.4735180624054L186.20164473639505,145.2399487023103L210.56797347875641,144.6861679969881L234.93430222111772,144.60029649516355" style="fill: none;" fill="none"></path></g><g><path stroke="rgb(204, 51, 17)" stroke-width="2px" d="M15.637343539865673,133.03406867910928L40.003672282227015,136.3863857732514L64.37000102458835,139.52847082028808L88.73632976694968,140.63921658223558L113.10265850931104,139.67104722274186L137.46898725167236,134.02666557268705L161.8353159940337,122.15150028132376L186.20164473639505,101.86326558933229L210.56797347875641,85.76694824799225L234.93430222111772,67.16063357644946" style="fill: none;" fill="none"></path></g><g><path stroke="rgb(0, 153, 136)" stroke-width="2px" d="M15.637343539865673,133.20758493284188L40.003672282227015,138.2808615639121L64.37000102458835,140.35493783012575L88.73632976694968,141.6521442103336L113.10265850931104,143.81104426214753L137.46898725167236,141.6194207146048L161.8353159940337,139.47704712862452L186.20164473639505,138.05661738340046L210.56797347875641,131.59554081904065L234.93430222111772,118.28986320859775" style="fill: none;" fill="none"></path></g><g><path stroke="rgb(0, 119, 187)" stroke-width="2px" d="M15.637343539865673,129.14767929837268L40.003672282227015,134.00946470958104L64.37000102458835,137.59886843888077L88.73632976694968,140.51471708622012L113.10265850931104,142.70029222468239L137.46898725167236,144.0471687375198L161.8353159940337,142.90135697323765L186.20164473639505,141.50268513992455L210.56797347875641,143.04086017823812L234.93430222111772,143.04233469542146" style="fill: none;" fill="none"></path></g><g><path stroke="rgb(0, 119, 187)" stroke-width="2px" d="M15.637343539865673,130.9512971683589L40.003672282227015,134.88750973297977L64.37000102458835,135.55896139034883L88.73632976694968,131.16281495084263L113.10265850931104,124.37765166995597L137.46898725167236,110.74462633349452L161.8353159940337,86.15360992841282L186.20164473639505,72.24334951234827L210.56797347875641,53.8703890030274L234.93430222111772,36.84122015603751" style="fill: none;" fill="none"></path></g><g><path stroke="rgb(238, 51, 119)" stroke-width="2px" d="M15.637343539865673,133.9553143775309L40.003672282227015,136.63087182492296L64.37000102458835,135.93481633980232L88.73632976694968,134.61715127102673L113.10265850931104,131.97098070440413L137.46898725167236,125.86701271702645L161.8353159940337,118.40411897029077L186.20164473639505,108.30635235730044L210.56797347875641,96.38951049149638L234.93430222111772,85.97136934589301" style="fill: none;" fill="none"></path></g><g><path stroke="rgb(255, 112, 67)" stroke-width="2px" d="M15.637343539865673,132.63943980461437L40.003672282227015,133.58567480078293L64.37000102458835,135.57764555835638L88.73632976694968,135.52809081629715L113.10265850931104,135.09132857793395L137.46898725167236,134.84851428102783L161.8353159940337,133.55671562716768L186.20164473639505,132.69054132018204L210.56797347875641,132.33608108398363L234.93430222111772,129.76765372031662" style="fill: none;" fill="none"></path></g><g><path stroke="rgb(204, 51, 17)" stroke-width="2px" d="M15.637343539865673,130.330450915331L40.003672282227015,134.60734616896008L64.37000102458835,135.90163971207468L88.73632976694968,136.53987972836887L113.10265850931104,133.65243786424062L137.46898725167236,131.0102769098534L161.8353159940337,126.16342680324306L186.20164473639505,116.15802069159636L210.56797347875641,105.70511674573576L234.93430222111772,92.11439026195708" style="fill: none;" fill="none"></path></g><g><path stroke="rgb(0, 153, 136)" stroke-width="2px" d="M15.637343539865673,132.86298723554665L40.003672282227015,135.0557113075361L64.37000102458835,134.24179917189144L88.73632976694968,134.31391888621664L113.10265850931104,132.76785643823985L137.46898725167236,130.7171935129129L161.8353159940337,127.52561015654778L186.20164473639505,122.31119055861599L210.56797347875641,117.43579048353725L234.93430222111772,107.41143370016063" style="fill: none;" fill="none"></path></g><g><path stroke="rgb(0, 119, 187)" stroke-width="2px" d="M15.637343539865673,132.0836052586481L40.003672282227015,132.76512148968453L64.37000102458835,135.13833789868235L88.73632976694968,136.51976349823306L113.10265850931104,136.90342505209472L137.46898725167236,136.99260761283557L161.8353159940337,136.6490961121807L186.20164473639505,135.6842383493663L210.56797347875641,132.7406564143141L234.93430222111772,132.65252661221402" style="fill: none;" fill="none"></path></g><g><path stroke="rgb(255, 112, 67)" stroke-width="2px" d="M15.637343539865673,134.43608698754082L40.003672282227015,134.09136898024798L64.37000102458835,132.47101020600087L88.73632976694968,127.9444331810383L113.10265850931104,109.59558342641748L137.46898725167236,90.52764878679082L161.8353159940337,70.88944938150297L186.20164473639505,49.94064200761687L210.56797347875641,27.714310936969696L234.93430222111772,20.556558242363337" style="fill: none;" fill="none"></path></g><g><path stroke="rgb(51, 187, 238)" stroke-width="2px" d="M15.637343539865673,133.19419726944628L40.003672282227015,134.0545356132041L64.37000102458835,131.95434593524257L88.73632976694968,131.13922209370983L113.10265850931104,125.01959711439022L137.46898725167236,115.02399607663205L161.8353159940337,104.49080465240728L186.20164473639505,91.50539754193355L210.56797347875641,75.24807147627371L234.93430222111772,61.955275663151" style="fill: none;" fill="none"></path></g><g><path stroke="rgb(187, 187, 187)" stroke-width="2px" d="M15.637343539865673,134.17044237142684L40.003672282227015,134.2166599654247L64.37000102458835,133.85494021581303L88.73632976694968,131.23506893485808L113.10265850931104,132.41435107320845L137.46898725167236,132.7384943101673L161.8353159940337,130.86089675397616L186.20164473639505,125.2268784153631L210.56797347875641,123.92560113478031L234.93430222111772,122.86209800243044" style="fill: none;" fill="none"></path></g></g></g></g><g opacity="0.2"><g><g><g><path stroke="rgb(0, 153, 136)" stroke-width="2px" d="M15.637343539865673,132.83082650308356L40.003672282227015,142.7023471579018L64.37000102458835,148.83740129931826L88.73632976694968,153.06535055344645L113.10265850931104,155.21453321822534L137.46898725167236,153.2612769213447L161.8353159940337,150.96359359143307L186.20164473639505,152.74150183814484L210.56797347875641,144.13345803457912L234.93430222111772,131.74799587927004" style="fill: none;" fill="none"></path></g><g><path stroke="rgb(0, 119, 187)" stroke-width="2px" d="M15.637343539865673,117.01417069264548L40.003672282227015,140.8829030218108L64.37000102458835,142.67850725645567L88.73632976694968,147.11181113094713L113.10265850931104,145.62959958101413L137.46898725167236,155.81443327722099L161.8353159940337,157.2913466498838L186.20164473639505,156.87389427444984L210.56797347875641,155.96965432182597L234.93430222111772,144.82708311496168" style="fill: none;" fill="none"></path></g><g><path stroke="rgb(238, 51, 119)" stroke-width="2px" d="M15.637343539865673,136.6237677177953L40.003672282227015,144.61958191740808L64.37000102458835,147.45417502265028L88.73632976694968,152.09862472487185L113.10265850931104,151.75090576781045L137.46898725167236,153.5211644629446L161.8353159940337,155.82700554468738L186.20164473639505,155.44675797885995L210.56797347875641,155.04017502078912L234.93430222111772,158.59640869352526" style="fill: none;" fill="none"></path></g><g><path stroke="rgb(187, 187, 187)" stroke-width="2px" d="M15.637343539865673,128.35249760314375L40.003672282227015,139.4215845703612L64.37000102458835,143.5690523500083L88.73632976694968,148.20277295881735L113.10265850931104,151.49955143942302L137.46898725167236,152.74894659260534L161.8353159940337,154.11581564767977L186.20164473639505,153.2950153501173L210.56797347875641,156.41968081649645L234.93430222111772,152.61648078323367" style="fill: none;" fill="none"></path></g><g><path stroke="rgb(204, 51, 17)" stroke-width="2px" d="M15.637343539865673,129.9148113736373L40.003672282227015,142.46706181812831L64.37000102458835,148.00257998431286L88.73632976694968,150.08049325234094L113.10265850931104,153.68318553034516L137.46898725167236,152.47405197336903L161.8353159940337,153.43109165681267L186.20164473639505,151.5922979856949L210.56797347875641,155.20203300900383L234.93430222111772,156.41464432443146" style="fill: none;" fill="none"></path></g><g><path stroke="rgb(0, 153, 136)" stroke-width="2px" d="M15.637343539865673,130.01500267436967L40.003672282227015,136.2359881691056L64.37000102458835,146.17123865273402L88.73632976694968,148.1086648909707L113.10265850931104,149.7943840946738L137.46898725167236,151.09132631187617L161.8353159940337,153.29662338674046L186.20164473639505,154.44203090744566L210.56797347875641,150.15542244942512L234.93430222111772,155.76120878201021" style="fill: none;" fill="none"></path></g><g><path stroke="rgb(238, 51, 119)" stroke-width="2px" d="M15.637343539865673,120.18188147900767L40.003672282227015,144.5690690877293L64.37000102458835,148.95752239357583L88.73632976694968,156.64884499799217L113.10265850931104,154.11643762410947L137.46898725167236,157.07274848261477L161.8353159940337,151.93509801940667L186.20164473639505,146.3888469672704L210.56797347875641,138.48520664050943L234.93430222111772,125.74276035485978" style="fill: none;" fill="none"></path></g><g><path stroke="rgb(255, 112, 67)" stroke-width="2px" d="M15.637343539865673,137.50906772962662L40.003672282227015,146.1216853354742L64.37000102458835,151.34619632410715L88.73632976694968,150.9490795438934L113.10265850931104,157.29046298824892L137.46898725167236,154.86115579266925L161.8353159940337,153.41258785802876L186.20164473639505,150.66592477426738L210.56797347875641,144.43440739815762L234.93430222111772,137.46000744246356" style="fill: none;" fill="none"></path></g><g><path stroke="rgb(51, 187, 238)" stroke-width="2px" d="M15.637343539865673,135.06712758595327L40.003672282227015,145.20830915590415L64.37000102458835,150.6107926318362L88.73632976694968,148.5574322626249L113.10265850931104,155.53311030403125L137.46898725167236,157.0086924954329L161.8353159940337,154.65953682342348L186.20164473639505,157.71988082487638L210.56797347875641,157.09527237295657L234.93430222111772,157.62450604893507" style="fill: none;" fill="none"></path></g><g><path stroke="rgb(51, 187, 238)" stroke-width="2px" d="M15.637343539865673,135.48567979775683L40.003672282227015,139.36148799410995L64.37000102458835,145.90380395811502L88.73632976694968,147.37866556706766L113.10265850931104,140.54409273934323L137.46898725167236,136.2994601052498L161.8353159940337,115.9627574636108L186.20164473639505,98.11689596616161L210.56797347875641,75.59775388345022L234.93430222111772,58.4961933752482" style="fill: none;" fill="none"></path></g><g><path stroke="rgb(187, 187, 187)" stroke-width="2px" d="M15.637343539865673,135.24268422577845L40.003672282227015,139.3460144341513L64.37000102458835,139.33410586104583L88.73632976694968,144.11840544647228L113.10265850931104,146.1781903770978L137.46898725167236,146.76335642127984L161.8353159940337,141.26220624537603L186.20164473639505,144.69675250516275L210.56797347875641,137.2137578718468L234.93430222111772,137.09918526244695" style="fill: none;" fill="none"></path></g><g><path stroke="rgb(204, 51, 17)" stroke-width="2px" d="M15.637343539865673,128.13944033565403L40.003672282227015,135.00990575441983L64.37000102458835,140.11473179080383L88.73632976694968,140.99108520264926L113.10265850931104,143.46870176262928L137.46898725167236,142.2981838398441L161.8353159940337,143.8302862430262L186.20164473639505,144.60348258848052L210.56797347875641,145.07313168100052L234.93430222111772,145.28565420046226" style="fill: none;" fill="none"></path></g><g><path stroke="rgb(238, 51, 119)" stroke-width="2px" d="M15.637343539865673,136.20802957008226L40.003672282227015,143.37097940491972L64.37000102458835,143.84348427946153L88.73632976694968,145.64072309850403L113.10265850931104,141.43955296370626L137.46898725167236,139.56838617792985L161.8353159940337,127.26863540866633L186.20164473639505,119.88323418672697L210.56797347875641,99.34522356405706L234.93430222111772,87.4245674287025" style="fill: none;" fill="none"></path></g><g><path stroke="rgb(255, 112, 67)" stroke-width="2px" d="M15.637343539865673,134.18904098369092L40.003672282227015,139.1837544367808L64.37000102458835,142.7322361593808L88.73632976694968,144.17279045867997L113.10265850931104,146.955001012415L137.46898725167236,146.49134792437897L161.8353159940337,144.88309891902773L186.20164473639505,141.4144691094007L210.56797347875641,134.56506366084335L234.93430222111772,132.1552235690058" style="fill: none;" fill="none"></path></g><g><path stroke="rgb(51, 187, 238)" stroke-width="2px" d="M15.637343539865673,135.46567794598673L40.003672282227015,140.68396917032254L64.37000102458835,142.84280763991876L88.73632976694968,143.93887801809888L113.10265850931104,142.7713486162077L137.46898725167236,146.41113192764226L161.8353159940337,147.52495518184355L186.20164473639505,144.88745654657492L210.56797347875641,143.83994963292196L234.93430222111772,144.46808893884216" style="fill: none;" fill="none"></path></g><g><path stroke="rgb(204, 51, 17)" stroke-width="2px" d="M15.637343539865673,133.03406867910928L40.003672282227015,138.42794688358396L64.37000102458835,142.60734025826343L88.73632976694968,141.97849554005097L113.10265850931104,138.3705050847766L137.46898725167236,125.97173870193441L161.8353159940337,104.59899020012166L186.20164473639505,71.24519316864506L210.56797347875641,61.17057066175168L234.93430222111772,38.51439655246514" style="fill: none;" fill="none"></path></g><g><path stroke="rgb(0, 153, 136)" stroke-width="2px" d="M15.637343539865673,133.20758493284188L40.003672282227015,141.37048703223388L64.37000102458835,142.38728575593944L88.73632976694968,143.21624759787227L113.10265850931104,146.7110952310273L137.46898725167236,138.49182082888393L161.8353159940337,136.31043571371066L186.20164473639505,135.91297001989L210.56797347875641,121.72253226555908L234.93430222111772,97.80447417148632" style="fill: none;" fill="none"></path></g><g><path stroke="rgb(0, 119, 187)" stroke-width="2px" d="M15.637343539865673,129.14767929837268L40.003672282227015,136.97029202500693L64.37000102458835,141.11605695455074L88.73632976694968,144.0304943876875L113.10265850931104,145.63617584399657L137.46898725167236,145.96925559972453L161.8353159940337,141.20774917492346L186.20164473639505,139.39187381822487L210.56797347875641,145.39130675765065L234.93430222111772,143.0446048585072" style="fill: none;" fill="none"></path></g><g><path stroke="rgb(0, 119, 187)" stroke-width="2px" d="M15.637343539865673,130.9512971683589L40.003672282227015,137.28466318483387L64.37000102458835,136.21690411182325L88.73632976694968,125.86217224428592L113.10265850931104,115.26314017128348L137.46898725167236,91.28934692104588L161.8353159940337,49.80598420979413L186.20164473639505,51.25062307381769L210.56797347875641,25.795130266439855L234.93430222111772,10.623153025397386" style="fill: none;" fill="none"></path></g><g><path stroke="rgb(238, 51, 119)" stroke-width="2px" d="M15.637343539865673,133.9553143775309L40.003672282227015,138.26028631038474L64.37000102458835,135.25276479498683L88.73632976694968,133.02837987030097L113.10265850931104,128.41637913352213L137.46898725167236,117.1562240411288L161.8353159940337,107.37332364992676L186.20164473639505,93.06726654537528L210.56797347875641,78.17968423427905L234.93430222111772,69.93162445956553" style="fill: none;" fill="none"></path></g><g><path stroke="rgb(255, 112, 67)" stroke-width="2px" d="M15.637343539865673,132.63943980461437L40.003672282227015,134.1619319134496L64.37000102458835,137.52953985625822L88.73632976694968,135.46834030850903L113.10265850931104,134.5046257560636L137.46898725167236,134.50200131893337L161.8353159940337,131.64732671859775L186.20164473639505,131.38335081973426L210.56797347875641,131.7944393143813L234.93430222111772,125.81330916916153" style="fill: none;" fill="none"></path></g><g><path stroke="rgb(204, 51, 17)" stroke-width="2px" d="M15.637343539865673,130.330450915331L40.003672282227015,137.2119753784202L64.37000102458835,137.16989336339535L88.73632976694968,137.30943605092457L113.10265850931104,129.77373650026902L137.46898725167236,127.23972867484159L161.8353159940337,118.99936775471534L186.20164473639505,101.0583211082851L210.56797347875641,89.73229719496965L234.93430222111772,71.19014066953723" style="fill: none;" fill="none"></path></g><g><path stroke="rgb(0, 153, 136)" stroke-width="2px" d="M15.637343539865673,132.86298723554665L40.003672282227015,136.39108026737762L64.37000102458835,133.44426213450382L88.73632976694968,134.40087705355643L113.10265850931104,130.69103037283844L137.46898725167236,127.79075428109522L161.8353159940337,122.80817695346312L186.20164473639505,114.44182788092829L210.56797347875641,109.98581428167398L234.93430222111772,91.97795826459867" style="fill: none;" fill="none"></path></g><g><path stroke="rgb(0, 119, 187)" stroke-width="2px" d="M15.637343539865673,132.0836052586481L40.003672282227015,133.18016487438572L64.37000102458835,137.4638075667475L88.73632976694968,138.18541400138866L113.10265850931104,137.41879771145597L137.46898725167236,137.11987735635248L161.8353159940337,136.14135673084857L186.20164473639505,134.22811930766494L210.56797347875641,128.24264291251563L234.93430222111772,132.51684218225557" style="fill: none;" fill="none"></path></g><g><path stroke="rgb(255, 112, 67)" stroke-width="2px" d="M15.637343539865673,134.43608698754082L40.003672282227015,133.88143571380667L64.37000102458835,130.88325142993284L88.73632976694968,122.4865241183615L113.10265850931104,84.94756905261298L137.46898725167236,63.3163741740984L161.8353159940337,41.86251084375721L186.20164473639505,18.325663620470124L210.56797347875641,-6.249186413220798L234.93430222111772,9.536499522064702" style="fill: none;" fill="none"></path></g><g><path stroke="rgb(51, 187, 238)" stroke-width="2px" d="M15.637343539865673,133.19419726944628L40.003672282227015,134.5784816645526L64.37000102458835,129.89640997341195L88.73632976694968,130.1563885359528L113.10265850931104,116.79910337937682L137.46898725167236,100.75957520998504L161.8353159940337,88.92184673689918L186.20164473639505,71.90841725475586L210.56797347875641,50.40566050897664L234.93430222111772,41.48971941000789" style="fill: none;" fill="none"></path></g><g><path stroke="rgb(187, 187, 187)" stroke-width="2px" d="M15.637343539865673,134.17044237142684L40.003672282227015,134.2448064801694L64.37000102458835,133.50049790584382L88.73632976694968,128.07616561154853L113.10265850931104,133.99848105876853L137.46898725167236,133.20106935048676L161.8353159940337,128.08564695956244L186.20164473639505,116.72427658085121L210.56797347875641,121.93715205920148L234.93430222111772,121.2247311545162" style="fill: none;" fill="none"></path></g></g></g></g></g></g><g transform="translate(40, 178)" clip-path="url(#clip_1)"><clipPath id="clip_1"><rect width="290" height="22"></rect></clipPath><g><g><line x1="15.637343539865673" y1="0" x2="15.637343539865673" y2="5" style="visibility: inherit;" fill="rgb(0, 0, 0)" stroke="rgb(204, 204, 204)" stroke-width="1px"></line><line x1="40.003672282227015" y1="0" x2="40.003672282227015" y2="5" style="visibility: inherit;" fill="rgb(0, 0, 0)" stroke="rgb(204, 204, 204)" stroke-width="1px"></line><line x1="64.37000102458835" y1="0" x2="64.37000102458835" y2="5" style="visibility: inherit;" fill="rgb(0, 0, 0)" stroke="rgb(204, 204, 204)" stroke-width="1px"></line><line x1="88.73632976694968" y1="0" x2="88.73632976694968" y2="5" style="visibility: inherit;" fill="rgb(0, 0, 0)" stroke="rgb(204, 204, 204)" stroke-width="1px"></line><line x1="113.10265850931104" y1="0" x2="113.10265850931104" y2="5" style="visibility: inherit;" fill="rgb(0, 0, 0)" stroke="rgb(204, 204, 204)" stroke-width="1px"></line><line x1="137.46898725167236" y1="0" x2="137.46898725167236" y2="5" style="visibility: inherit;" fill="rgb(0, 0, 0)" stroke="rgb(204, 204, 204)" stroke-width="1px"></line><line x1="161.8353159940337" y1="0" x2="161.8353159940337" y2="5" style="visibility: inherit;" fill="rgb(0, 0, 0)" stroke="rgb(204, 204, 204)" stroke-width="1px"></line><line x1="186.20164473639505" y1="0" x2="186.20164473639505" y2="5" style="visibility: inherit;" fill="rgb(0, 0, 0)" stroke="rgb(204, 204, 204)" stroke-width="1px"></line><line x1="210.56797347875641" y1="0" x2="210.56797347875641" y2="5" style="visibility: inherit;" fill="rgb(0, 0, 0)" stroke="rgb(204, 204, 204)" stroke-width="1px"></line><line x1="234.93430222111772" y1="0" x2="234.93430222111772" y2="5" style="visibility: inherit;" fill="rgb(0, 0, 0)" stroke="rgb(204, 204, 204)" stroke-width="1px"></line><line x1="259.3006309634791" y1="0" x2="259.3006309634791" y2="5" style="visibility: inherit;" fill="rgb(0, 0, 0)" stroke="rgb(204, 204, 204)" stroke-width="1px"></line><line x1="283.66695970584044" y1="0" x2="283.66695970584044" y2="5" style="visibility: inherit;" fill="rgb(0, 0, 0)" stroke="rgb(204, 204, 204)" stroke-width="1px"></line></g><g transform="translate(0, 8)"><text x="15.637343539865673" y="0" dx="0em" dy="0.95em" style="text-anchor: middle; visibility: inherit; font-family: &quot;Helvetica Neue&quot;, sans-serif; font-size: 12px; font-weight: 200;" fill="rgb(50, 49, 63)" stroke="none" stroke-width="1px">0</text><text x="40.003672282227015" y="0" dx="0em" dy="0.95em" style="text-anchor: middle; visibility: inherit; font-family: &quot;Helvetica Neue&quot;, sans-serif; font-size: 12px; font-weight: 200;" fill="rgb(50, 49, 63)" stroke="none" stroke-width="1px">1</text><text x="64.37000102458835" y="0" dx="0em" dy="0.95em" style="text-anchor: middle; visibility: inherit; font-family: &quot;Helvetica Neue&quot;, sans-serif; font-size: 12px; font-weight: 200;" fill="rgb(50, 49, 63)" stroke="none" stroke-width="1px">2</text><text x="88.73632976694968" y="0" dx="0em" dy="0.95em" style="text-anchor: middle; visibility: inherit; font-family: &quot;Helvetica Neue&quot;, sans-serif; font-size: 12px; font-weight: 200;" fill="rgb(50, 49, 63)" stroke="none" stroke-width="1px">3</text><text x="113.10265850931104" y="0" dx="0em" dy="0.95em" style="text-anchor: middle; visibility: inherit; font-family: &quot;Helvetica Neue&quot;, sans-serif; font-size: 12px; font-weight: 200;" fill="rgb(50, 49, 63)" stroke="none" stroke-width="1px">4</text><text x="137.46898725167236" y="0" dx="0em" dy="0.95em" style="text-anchor: middle; visibility: inherit; font-family: &quot;Helvetica Neue&quot;, sans-serif; font-size: 12px; font-weight: 200;" fill="rgb(50, 49, 63)" stroke="none" stroke-width="1px">5</text><text x="161.8353159940337" y="0" dx="0em" dy="0.95em" style="text-anchor: middle; visibility: inherit; font-family: &quot;Helvetica Neue&quot;, sans-serif; font-size: 12px; font-weight: 200;" fill="rgb(50, 49, 63)" stroke="none" stroke-width="1px">6</text><text x="186.20164473639505" y="0" dx="0em" dy="0.95em" style="text-anchor: middle; visibility: inherit; font-family: &quot;Helvetica Neue&quot;, sans-serif; font-size: 12px; font-weight: 200;" fill="rgb(50, 49, 63)" stroke="none" stroke-width="1px">7</text><text x="210.56797347875641" y="0" dx="0em" dy="0.95em" style="text-anchor: middle; visibility: inherit; font-family: &quot;Helvetica Neue&quot;, sans-serif; font-size: 12px; font-weight: 200;" fill="rgb(50, 49, 63)" stroke="none" stroke-width="1px">8</text><text x="234.93430222111772" y="0" dx="0em" dy="0.95em" style="text-anchor: middle; visibility: inherit; font-family: &quot;Helvetica Neue&quot;, sans-serif; font-size: 12px; font-weight: 200;" fill="rgb(50, 49, 63)" stroke="none" stroke-width="1px">9</text><text x="259.3006309634791" y="0" dx="0em" dy="0.95em" style="text-anchor: middle; visibility: inherit; font-family: &quot;Helvetica Neue&quot;, sans-serif; font-size: 12px; font-weight: 200;" fill="rgb(50, 49, 63)" stroke="none" stroke-width="1px">10</text><text x="283.66695970584044" y="0" dx="0em" dy="0.95em" style="text-anchor: middle; visibility: inherit; font-family: &quot;Helvetica Neue&quot;, sans-serif; font-size: 12px; font-weight: 200;" fill="rgb(50, 49, 63)" stroke="none" stroke-width="1px">11</text></g><line x1="0" y1="0" x2="290" y2="0" fill="rgb(0, 0, 0)" stroke="rgb(204, 204, 204)" stroke-width="1px"></line></g></g></g></g></svg>